<svg xmlns="http://www.w3.org/2000/svg" width="3713.6400000000003" height="356.0">
<rect x="20" y="10" width="3536.8" height="320" fill="#ffffff" />
<text x="40.0" y="50.0" font-size="16px" dominant-baseline="middle" text-anchor="start" font-family="Arial" font-weight="normal" fill="#252b3a" >
q0:
 </text>
<text x="40.0" y="110.0" font-size="16px" dominant-baseline="middle" text-anchor="start" font-family="Arial" font-weight="normal" fill="#252b3a" >
q1:
 </text>
<text x="40.0" y="170.0" font-size="16px" dominant-baseline="middle" text-anchor="start" font-family="Arial" font-weight="normal" fill="#252b3a" >
q2:
 </text>
<text x="40.0" y="230.0" font-size="16px" dominant-baseline="middle" text-anchor="start" font-family="Arial" font-weight="normal" fill="#252b3a" >
q3:
 </text>
<text x="40.0" y="290.0" font-size="16px" dominant-baseline="middle" text-anchor="start" font-family="Arial" font-weight="normal" fill="#252b3a" >
q4:
 </text>
<line x1="68.8" x2="3536.8" y1="50.0" y2="50.0" stroke="#adb0b8" stroke-width="1" />
<line x1="68.8" x2="3536.8" y1="110.0" y2="110.0" stroke="#adb0b8" stroke-width="1" />
<line x1="68.8" x2="3536.8" y1="170.0" y2="170.0" stroke="#adb0b8" stroke-width="1" />
<line x1="68.8" x2="3536.8" y1="230.0" y2="230.0" stroke="#adb0b8" stroke-width="1" />
<line x1="68.8" x2="3536.8" y1="290.0" y2="290.0" stroke="#adb0b8" stroke-width="1" />
<circle cx="112.8" cy="230.0" r="4" fill="#16acff" />
<line x1="112.8" x2="112.8" y1="170.0" y2="230.0" stroke="#16acff" stroke-width="3" />
<rect x="92.8" y="150.0" width="40" height="40" rx="4" ry="4" stroke="#ffffff" stroke-width="0" fill="#16acff" fill-opacity="1" />
<line x1="98.8" x2="126.8" y1="170.0" y2="170.0" stroke="#ffffff" stroke-width="4" />
<line x1="112.8" x2="112.8" y1="156.0" y2="184.0" stroke="#ffffff" stroke-width="4" />

<rect x="152.8" y="150.0" width="80.0" height="40" rx="4" ry="4" stroke="#ffffff" stroke-width="0" fill="#fac209" fill-opacity="1" />
<text x="192.8" y="166.0" font-size="20px" dominant-baseline="middle" text-anchor="middle" font-family="Arial" font-weight="normal" fill="#ffffff" >
RZ
 </text>
<text x="192.8" y="182.0" font-size="14.0px" dominant-baseline="middle" text-anchor="middle" font-family="Arial" font-weight="normal" fill="#ffffff" >
beta_0
 </text>


<rect x="252.8" y="150.0" width="40.0" height="40" rx="4" ry="4" stroke="#ffffff" stroke-width="0" fill="#5e7ce0" fill-opacity="1" />
<text x="272.8" y="170.0" font-size="20px" dominant-baseline="middle" text-anchor="middle" font-family="Arial" font-weight="normal" fill="#ffffff" >
H
 </text>


<rect x="152.8" y="210.0" width="40.0" height="40" rx="4" ry="4" stroke="#ffffff" stroke-width="0" fill="#5e7ce0" fill-opacity="1" />
<text x="172.8" y="230.0" font-size="20px" dominant-baseline="middle" text-anchor="middle" font-family="Arial" font-weight="normal" fill="#ffffff" >
H
 </text>

<circle cx="332.8" cy="230.0" r="4" fill="#16acff" />
<line x1="332.8" x2="332.8" y1="170.0" y2="230.0" stroke="#16acff" stroke-width="3" />
<rect x="312.8" y="150.0" width="40" height="40" rx="4" ry="4" stroke="#ffffff" stroke-width="0" fill="#16acff" fill-opacity="1" />
<line x1="318.8" x2="346.8" y1="170.0" y2="170.0" stroke="#ffffff" stroke-width="4" />
<line x1="332.8" x2="332.8" y1="156.0" y2="184.0" stroke="#ffffff" stroke-width="4" />

<rect x="372.8" y="150.0" width="40.0" height="40" rx="4" ry="4" stroke="#ffffff" stroke-width="0" fill="#5e7ce0" fill-opacity="1" />
<text x="392.8" y="170.0" font-size="20px" dominant-baseline="middle" text-anchor="middle" font-family="Arial" font-weight="normal" fill="#ffffff" >
H
 </text>

<circle cx="452.8" cy="170.0" r="4" fill="#16acff" />
<line x1="452.8" x2="452.8" y1="110.0" y2="170.0" stroke="#16acff" stroke-width="3" />
<rect x="432.8" y="90.0" width="40" height="40" rx="4" ry="4" stroke="#ffffff" stroke-width="0" fill="#16acff" fill-opacity="1" />
<line x1="438.8" x2="466.8" y1="110.0" y2="110.0" stroke="#ffffff" stroke-width="4" />
<line x1="452.8" x2="452.8" y1="96.0" y2="124.0" stroke="#ffffff" stroke-width="4" />

<rect x="492.8" y="90.0" width="80.0" height="40" rx="4" ry="4" stroke="#ffffff" stroke-width="0" fill="#fac209" fill-opacity="1" />
<text x="532.8" y="106.0" font-size="20px" dominant-baseline="middle" text-anchor="middle" font-family="Arial" font-weight="normal" fill="#ffffff" >
RZ
 </text>
<text x="532.8" y="122.0" font-size="14.0px" dominant-baseline="middle" text-anchor="middle" font-family="Arial" font-weight="normal" fill="#ffffff" >
beta_0
 </text>


<rect x="492.8" y="150.0" width="40.0" height="40" rx="4" ry="4" stroke="#ffffff" stroke-width="0" fill="#5e7ce0" fill-opacity="1" />
<text x="512.8" y="170.0" font-size="20px" dominant-baseline="middle" text-anchor="middle" font-family="Arial" font-weight="normal" fill="#ffffff" >
H
 </text>


<rect x="592.8" y="90.0" width="40.0" height="40" rx="4" ry="4" stroke="#ffffff" stroke-width="0" fill="#5e7ce0" fill-opacity="1" />
<text x="612.8" y="110.0" font-size="20px" dominant-baseline="middle" text-anchor="middle" font-family="Arial" font-weight="normal" fill="#ffffff" >
H
 </text>

<circle cx="672.8" cy="110.0" r="4" fill="#16acff" />
<line x1="672.8" x2="672.8" y1="110.0" y2="170.0" stroke="#16acff" stroke-width="3" />
<rect x="652.8" y="150.0" width="40" height="40" rx="4" ry="4" stroke="#ffffff" stroke-width="0" fill="#16acff" fill-opacity="1" />
<line x1="658.8" x2="686.8" y1="170.0" y2="170.0" stroke="#ffffff" stroke-width="4" />
<line x1="672.8" x2="672.8" y1="156.0" y2="184.0" stroke="#ffffff" stroke-width="4" />
<circle cx="732.8" cy="170.0" r="4" fill="#16acff" />
<line x1="732.8" x2="732.8" y1="110.0" y2="170.0" stroke="#16acff" stroke-width="3" />
<rect x="712.8" y="90.0" width="40" height="40" rx="4" ry="4" stroke="#ffffff" stroke-width="0" fill="#16acff" fill-opacity="1" />
<line x1="718.8" x2="746.8" y1="110.0" y2="110.0" stroke="#ffffff" stroke-width="4" />
<line x1="732.8" x2="732.8" y1="96.0" y2="124.0" stroke="#ffffff" stroke-width="4" />

<rect x="772.8" y="90.0" width="40.0" height="40" rx="4" ry="4" stroke="#ffffff" stroke-width="0" fill="#5e7ce0" fill-opacity="1" />
<text x="792.8" y="110.0" font-size="20px" dominant-baseline="middle" text-anchor="middle" font-family="Arial" font-weight="normal" fill="#ffffff" >
H
 </text>

<circle cx="852.8" cy="110.0" r="4" fill="#16acff" />
<line x1="852.8" x2="852.8" y1="50.0" y2="110.0" stroke="#16acff" stroke-width="3" />
<rect x="832.8" y="30.0" width="40" height="40" rx="4" ry="4" stroke="#ffffff" stroke-width="0" fill="#16acff" fill-opacity="1" />
<line x1="838.8" x2="866.8" y1="50.0" y2="50.0" stroke="#ffffff" stroke-width="4" />
<line x1="852.8" x2="852.8" y1="36.0" y2="64.0" stroke="#ffffff" stroke-width="4" />

<rect x="892.8" y="30.0" width="80.0" height="40" rx="4" ry="4" stroke="#ffffff" stroke-width="0" fill="#fac209" fill-opacity="1" />
<text x="932.8" y="46.0" font-size="20px" dominant-baseline="middle" text-anchor="middle" font-family="Arial" font-weight="normal" fill="#ffffff" >
RZ
 </text>
<text x="932.8" y="62.0" font-size="14.0px" dominant-baseline="middle" text-anchor="middle" font-family="Arial" font-weight="normal" fill="#ffffff" >
beta_0
 </text>


<rect x="992.8" y="30.0" width="40.0" height="40" rx="4" ry="4" stroke="#ffffff" stroke-width="0" fill="#5e7ce0" fill-opacity="1" />
<text x="1012.8" y="50.0" font-size="20px" dominant-baseline="middle" text-anchor="middle" font-family="Arial" font-weight="normal" fill="#ffffff" >
H
 </text>


<rect x="892.8" y="90.0" width="40.0" height="40" rx="4" ry="4" stroke="#ffffff" stroke-width="0" fill="#5e7ce0" fill-opacity="1" />
<text x="912.8" y="110.0" font-size="20px" dominant-baseline="middle" text-anchor="middle" font-family="Arial" font-weight="normal" fill="#ffffff" >
H
 </text>

<circle cx="1072.8" cy="110.0" r="4" fill="#16acff" />
<line x1="1072.8" x2="1072.8" y1="50.0" y2="110.0" stroke="#16acff" stroke-width="3" />
<rect x="1052.8" y="30.0" width="40" height="40" rx="4" ry="4" stroke="#ffffff" stroke-width="0" fill="#16acff" fill-opacity="1" />
<line x1="1058.8" x2="1086.8" y1="50.0" y2="50.0" stroke="#ffffff" stroke-width="4" />
<line x1="1072.8" x2="1072.8" y1="36.0" y2="64.0" stroke="#ffffff" stroke-width="4" />

<rect x="1112.8" y="30.0" width="40.0" height="40" rx="4" ry="4" stroke="#ffffff" stroke-width="0" fill="#5e7ce0" fill-opacity="1" />
<text x="1132.8" y="50.0" font-size="20px" dominant-baseline="middle" text-anchor="middle" font-family="Arial" font-weight="normal" fill="#ffffff" >
H
 </text>


<rect x="1112.8" y="90.0" width="80.0" height="40" rx="4" ry="4" stroke="#ffffff" stroke-width="0" fill="#fac209" fill-opacity="1" />
<text x="1152.8" y="106.0" font-size="20px" dominant-baseline="middle" text-anchor="middle" font-family="Arial" font-weight="normal" fill="#ffffff" >
RY
 </text>
<text x="1152.8" y="122.0" font-size="14.0px" dominant-baseline="middle" text-anchor="middle" font-family="Arial" font-weight="normal" fill="#ffffff" >
alpha_0
 </text>


<rect x="92.8" y="270.0" width="40.0" height="40" rx="4" ry="4" stroke="#ffffff" stroke-width="0" fill="#5e7ce0" fill-opacity="1" />
<text x="112.8" y="290.0" font-size="20px" dominant-baseline="middle" text-anchor="middle" font-family="Arial" font-weight="normal" fill="#ffffff" >
H
 </text>

<circle cx="392.8" cy="290.0" r="4" fill="#16acff" />
<line x1="392.8" x2="392.8" y1="230.0" y2="290.0" stroke="#16acff" stroke-width="3" />
<rect x="372.8" y="210.0" width="40" height="40" rx="4" ry="4" stroke="#ffffff" stroke-width="0" fill="#16acff" fill-opacity="1" />
<line x1="378.8" x2="406.8" y1="230.0" y2="230.0" stroke="#ffffff" stroke-width="4" />
<line x1="392.8" x2="392.8" y1="216.0" y2="244.0" stroke="#ffffff" stroke-width="4" />
<circle cx="452.8" cy="230.0" r="4" fill="#16acff" />
<line x1="452.8" x2="452.8" y1="230.0" y2="290.0" stroke="#16acff" stroke-width="3" />
<rect x="432.8" y="270.0" width="40" height="40" rx="4" ry="4" stroke="#ffffff" stroke-width="0" fill="#16acff" fill-opacity="1" />
<line x1="438.8" x2="466.8" y1="290.0" y2="290.0" stroke="#ffffff" stroke-width="4" />
<line x1="452.8" x2="452.8" y1="276.0" y2="304.0" stroke="#ffffff" stroke-width="4" />
<circle cx="512.8" cy="290.0" r="4" fill="#16acff" />
<line x1="512.8" x2="512.8" y1="230.0" y2="290.0" stroke="#16acff" stroke-width="3" />
<rect x="492.8" y="210.0" width="40" height="40" rx="4" ry="4" stroke="#ffffff" stroke-width="0" fill="#16acff" fill-opacity="1" />
<line x1="498.8" x2="526.8" y1="230.0" y2="230.0" stroke="#ffffff" stroke-width="4" />
<line x1="512.8" x2="512.8" y1="216.0" y2="244.0" stroke="#ffffff" stroke-width="4" />

<rect x="552.8" y="210.0" width="40.0" height="40" rx="4" ry="4" stroke="#ffffff" stroke-width="0" fill="#5e7ce0" fill-opacity="1" />
<text x="572.8" y="230.0" font-size="20px" dominant-baseline="middle" text-anchor="middle" font-family="Arial" font-weight="normal" fill="#ffffff" >
H
 </text>


<rect x="772.8" y="150.0" width="40.0" height="40" rx="4" ry="4" stroke="#ffffff" stroke-width="0" fill="#5e7ce0" fill-opacity="1" />
<text x="792.8" y="170.0" font-size="20px" dominant-baseline="middle" text-anchor="middle" font-family="Arial" font-weight="normal" fill="#ffffff" >
H
 </text>

<circle cx="852.8" cy="170.0" r="4" fill="#16acff" />
<line x1="852.8" x2="852.8" y1="170.0" y2="230.0" stroke="#16acff" stroke-width="3" />
<rect x="832.8" y="210.0" width="40" height="40" rx="4" ry="4" stroke="#ffffff" stroke-width="0" fill="#16acff" fill-opacity="1" />
<line x1="838.8" x2="866.8" y1="230.0" y2="230.0" stroke="#ffffff" stroke-width="4" />
<line x1="852.8" x2="852.8" y1="216.0" y2="244.0" stroke="#ffffff" stroke-width="4" />

<rect x="892.8" y="210.0" width="80.0" height="40" rx="4" ry="4" stroke="#ffffff" stroke-width="0" fill="#fac209" fill-opacity="1" />
<text x="932.8" y="226.0" font-size="20px" dominant-baseline="middle" text-anchor="middle" font-family="Arial" font-weight="normal" fill="#ffffff" >
RZ
 </text>
<text x="932.8" y="242.0" font-size="14.0px" dominant-baseline="middle" text-anchor="middle" font-family="Arial" font-weight="normal" fill="#ffffff" >
beta_0
 </text>


<rect x="992.8" y="210.0" width="40.0" height="40" rx="4" ry="4" stroke="#ffffff" stroke-width="0" fill="#5e7ce0" fill-opacity="1" />
<text x="1012.8" y="230.0" font-size="20px" dominant-baseline="middle" text-anchor="middle" font-family="Arial" font-weight="normal" fill="#ffffff" >
H
 </text>


<rect x="892.8" y="150.0" width="40.0" height="40" rx="4" ry="4" stroke="#ffffff" stroke-width="0" fill="#5e7ce0" fill-opacity="1" />
<text x="912.8" y="170.0" font-size="20px" dominant-baseline="middle" text-anchor="middle" font-family="Arial" font-weight="normal" fill="#ffffff" >
H
 </text>

<circle cx="1072.8" cy="170.0" r="4" fill="#16acff" />
<line x1="1072.8" x2="1072.8" y1="170.0" y2="230.0" stroke="#16acff" stroke-width="3" />
<rect x="1052.8" y="210.0" width="40" height="40" rx="4" ry="4" stroke="#ffffff" stroke-width="0" fill="#16acff" fill-opacity="1" />
<line x1="1058.8" x2="1086.8" y1="230.0" y2="230.0" stroke="#ffffff" stroke-width="4" />
<line x1="1072.8" x2="1072.8" y1="216.0" y2="244.0" stroke="#ffffff" stroke-width="4" />

<rect x="1112.8" y="210.0" width="40.0" height="40" rx="4" ry="4" stroke="#ffffff" stroke-width="0" fill="#5e7ce0" fill-opacity="1" />
<text x="1132.8" y="230.0" font-size="20px" dominant-baseline="middle" text-anchor="middle" font-family="Arial" font-weight="normal" fill="#ffffff" >
H
 </text>


<rect x="552.8" y="270.0" width="40.0" height="40" rx="4" ry="4" stroke="#ffffff" stroke-width="0" fill="#5e7ce0" fill-opacity="1" />
<text x="572.8" y="290.0" font-size="20px" dominant-baseline="middle" text-anchor="middle" font-family="Arial" font-weight="normal" fill="#ffffff" >
H
 </text>

<circle cx="1192.8" cy="290.0" r="4" fill="#16acff" />
<line x1="1192.8" x2="1192.8" y1="230.0" y2="290.0" stroke="#16acff" stroke-width="3" />
<rect x="1172.8" y="210.0" width="40" height="40" rx="4" ry="4" stroke="#ffffff" stroke-width="0" fill="#16acff" fill-opacity="1" />
<line x1="1178.8" x2="1206.8" y1="230.0" y2="230.0" stroke="#ffffff" stroke-width="4" />
<line x1="1192.8" x2="1192.8" y1="216.0" y2="244.0" stroke="#ffffff" stroke-width="4" />

<rect x="1232.8" y="210.0" width="80.0" height="40" rx="4" ry="4" stroke="#ffffff" stroke-width="0" fill="#fac209" fill-opacity="1" />
<text x="1272.8" y="226.0" font-size="20px" dominant-baseline="middle" text-anchor="middle" font-family="Arial" font-weight="normal" fill="#ffffff" >
RZ
 </text>
<text x="1272.8" y="242.0" font-size="14.0px" dominant-baseline="middle" text-anchor="middle" font-family="Arial" font-weight="normal" fill="#ffffff" >
beta_0
 </text>


<rect x="1332.8" y="210.0" width="40.0" height="40" rx="4" ry="4" stroke="#ffffff" stroke-width="0" fill="#5e7ce0" fill-opacity="1" />
<text x="1352.8" y="230.0" font-size="20px" dominant-baseline="middle" text-anchor="middle" font-family="Arial" font-weight="normal" fill="#ffffff" >
H
 </text>


<rect x="1232.8" y="270.0" width="40.0" height="40" rx="4" ry="4" stroke="#ffffff" stroke-width="0" fill="#5e7ce0" fill-opacity="1" />
<text x="1252.8" y="290.0" font-size="20px" dominant-baseline="middle" text-anchor="middle" font-family="Arial" font-weight="normal" fill="#ffffff" >
H
 </text>

<circle cx="1412.8" cy="290.0" r="4" fill="#16acff" />
<line x1="1412.8" x2="1412.8" y1="230.0" y2="290.0" stroke="#16acff" stroke-width="3" />
<rect x="1392.8" y="210.0" width="40" height="40" rx="4" ry="4" stroke="#ffffff" stroke-width="0" fill="#16acff" fill-opacity="1" />
<line x1="1398.8" x2="1426.8" y1="230.0" y2="230.0" stroke="#ffffff" stroke-width="4" />
<line x1="1412.8" x2="1412.8" y1="216.0" y2="244.0" stroke="#ffffff" stroke-width="4" />

<rect x="1452.8" y="210.0" width="80.0" height="40" rx="4" ry="4" stroke="#ffffff" stroke-width="0" fill="#fac209" fill-opacity="1" />
<text x="1492.8" y="226.0" font-size="20px" dominant-baseline="middle" text-anchor="middle" font-family="Arial" font-weight="normal" fill="#ffffff" >
RY
 </text>
<text x="1492.8" y="242.0" font-size="14.0px" dominant-baseline="middle" text-anchor="middle" font-family="Arial" font-weight="normal" fill="#ffffff" >
alpha_0
 </text>


<rect x="1452.8" y="270.0" width="80.0" height="40" rx="4" ry="4" stroke="#ffffff" stroke-width="0" fill="#fac209" fill-opacity="1" />
<text x="1492.8" y="286.0" font-size="20px" dominant-baseline="middle" text-anchor="middle" font-family="Arial" font-weight="normal" fill="#ffffff" >
RY
 </text>
<text x="1492.8" y="302.0" font-size="14.0px" dominant-baseline="middle" text-anchor="middle" font-family="Arial" font-weight="normal" fill="#ffffff" >
alpha_0
 </text>

<circle cx="1572.8" cy="290.0" r="4" fill="#16acff" />
<line x1="1572.8" x2="1572.8" y1="230.0" y2="290.0" stroke="#16acff" stroke-width="3" />
<rect x="1552.8" y="210.0" width="40" height="40" rx="4" ry="4" stroke="#ffffff" stroke-width="0" fill="#16acff" fill-opacity="1" />
<line x1="1558.8" x2="1586.8" y1="230.0" y2="230.0" stroke="#ffffff" stroke-width="4" />
<line x1="1572.8" x2="1572.8" y1="216.0" y2="244.0" stroke="#ffffff" stroke-width="4" />
<circle cx="1632.8" cy="230.0" r="4" fill="#16acff" />
<line x1="1632.8" x2="1632.8" y1="230.0" y2="290.0" stroke="#16acff" stroke-width="3" />
<rect x="1612.8" y="270.0" width="40" height="40" rx="4" ry="4" stroke="#ffffff" stroke-width="0" fill="#16acff" fill-opacity="1" />
<line x1="1618.8" x2="1646.8" y1="290.0" y2="290.0" stroke="#ffffff" stroke-width="4" />
<line x1="1632.8" x2="1632.8" y1="276.0" y2="304.0" stroke="#ffffff" stroke-width="4" />
<circle cx="1692.8" cy="290.0" r="4" fill="#16acff" />
<line x1="1692.8" x2="1692.8" y1="230.0" y2="290.0" stroke="#16acff" stroke-width="3" />
<rect x="1672.8" y="210.0" width="40" height="40" rx="4" ry="4" stroke="#ffffff" stroke-width="0" fill="#16acff" fill-opacity="1" />
<line x1="1678.8" x2="1706.8" y1="230.0" y2="230.0" stroke="#ffffff" stroke-width="4" />
<line x1="1692.8" x2="1692.8" y1="216.0" y2="244.0" stroke="#ffffff" stroke-width="4" />
<circle cx="1232.8" cy="170.0" r="4" fill="#16acff" />
<line x1="1232.8" x2="1232.8" y1="110.0" y2="170.0" stroke="#16acff" stroke-width="3" />
<rect x="1212.8" y="90.0" width="40" height="40" rx="4" ry="4" stroke="#ffffff" stroke-width="0" fill="#16acff" fill-opacity="1" />
<line x1="1218.8" x2="1246.8" y1="110.0" y2="110.0" stroke="#ffffff" stroke-width="4" />
<line x1="1232.8" x2="1232.8" y1="96.0" y2="124.0" stroke="#ffffff" stroke-width="4" />
<circle cx="1292.8" cy="110.0" r="4" fill="#16acff" />
<line x1="1292.8" x2="1292.8" y1="110.0" y2="170.0" stroke="#16acff" stroke-width="3" />
<rect x="1272.8" y="150.0" width="40" height="40" rx="4" ry="4" stroke="#ffffff" stroke-width="0" fill="#16acff" fill-opacity="1" />
<line x1="1278.8" x2="1306.8" y1="170.0" y2="170.0" stroke="#ffffff" stroke-width="4" />
<line x1="1292.8" x2="1292.8" y1="156.0" y2="184.0" stroke="#ffffff" stroke-width="4" />
<circle cx="1352.8" cy="170.0" r="4" fill="#16acff" />
<line x1="1352.8" x2="1352.8" y1="110.0" y2="170.0" stroke="#16acff" stroke-width="3" />
<rect x="1332.8" y="90.0" width="40" height="40" rx="4" ry="4" stroke="#ffffff" stroke-width="0" fill="#16acff" fill-opacity="1" />
<line x1="1338.8" x2="1366.8" y1="110.0" y2="110.0" stroke="#ffffff" stroke-width="4" />
<line x1="1352.8" x2="1352.8" y1="96.0" y2="124.0" stroke="#ffffff" stroke-width="4" />

<rect x="1392.8" y="90.0" width="40.0" height="40" rx="4" ry="4" stroke="#ffffff" stroke-width="0" fill="#5e7ce0" fill-opacity="1" />
<text x="1412.8" y="110.0" font-size="20px" dominant-baseline="middle" text-anchor="middle" font-family="Arial" font-weight="normal" fill="#ffffff" >
H
 </text>

<circle cx="1472.8" cy="110.0" r="4" fill="#16acff" />
<line x1="1472.8" x2="1472.8" y1="50.0" y2="110.0" stroke="#16acff" stroke-width="3" />
<rect x="1452.8" y="30.0" width="40" height="40" rx="4" ry="4" stroke="#ffffff" stroke-width="0" fill="#16acff" fill-opacity="1" />
<line x1="1458.8" x2="1486.8" y1="50.0" y2="50.0" stroke="#ffffff" stroke-width="4" />
<line x1="1472.8" x2="1472.8" y1="36.0" y2="64.0" stroke="#ffffff" stroke-width="4" />

<rect x="1512.8" y="30.0" width="80.0" height="40" rx="4" ry="4" stroke="#ffffff" stroke-width="0" fill="#fac209" fill-opacity="1" />
<text x="1552.8" y="46.0" font-size="20px" dominant-baseline="middle" text-anchor="middle" font-family="Arial" font-weight="normal" fill="#ffffff" >
RZ
 </text>
<text x="1552.8" y="62.0" font-size="14.0px" dominant-baseline="middle" text-anchor="middle" font-family="Arial" font-weight="normal" fill="#ffffff" >
beta_0
 </text>


<rect x="1612.8" y="30.0" width="40.0" height="40" rx="4" ry="4" stroke="#ffffff" stroke-width="0" fill="#5e7ce0" fill-opacity="1" />
<text x="1632.8" y="50.0" font-size="20px" dominant-baseline="middle" text-anchor="middle" font-family="Arial" font-weight="normal" fill="#ffffff" >
H
 </text>


<rect x="1512.8" y="90.0" width="40.0" height="40" rx="4" ry="4" stroke="#ffffff" stroke-width="0" fill="#5e7ce0" fill-opacity="1" />
<text x="1532.8" y="110.0" font-size="20px" dominant-baseline="middle" text-anchor="middle" font-family="Arial" font-weight="normal" fill="#ffffff" >
H
 </text>

<circle cx="1692.8" cy="110.0" r="4" fill="#16acff" />
<line x1="1692.8" x2="1692.8" y1="50.0" y2="110.0" stroke="#16acff" stroke-width="3" />
<rect x="1672.8" y="30.0" width="40" height="40" rx="4" ry="4" stroke="#ffffff" stroke-width="0" fill="#16acff" fill-opacity="1" />
<line x1="1678.8" x2="1706.8" y1="50.0" y2="50.0" stroke="#ffffff" stroke-width="4" />
<line x1="1692.8" x2="1692.8" y1="36.0" y2="64.0" stroke="#ffffff" stroke-width="4" />

<rect x="1732.8" y="30.0" width="80.0" height="40" rx="4" ry="4" stroke="#ffffff" stroke-width="0" fill="#fac209" fill-opacity="1" />
<text x="1772.8" y="46.0" font-size="20px" dominant-baseline="middle" text-anchor="middle" font-family="Arial" font-weight="normal" fill="#ffffff" >
RY
 </text>
<text x="1772.8" y="62.0" font-size="14.0px" dominant-baseline="middle" text-anchor="middle" font-family="Arial" font-weight="normal" fill="#ffffff" >
alpha_0
 </text>


<rect x="1832.8" y="30.0" width="40.0" height="40" rx="4" ry="4" stroke="#ffffff" stroke-width="0" fill="#5e7ce0" fill-opacity="1" />
<text x="1852.8" y="50.0" font-size="20px" dominant-baseline="middle" text-anchor="middle" font-family="Arial" font-weight="normal" fill="#ffffff" >
H
 </text>


<rect x="1732.8" y="90.0" width="80.0" height="40" rx="4" ry="4" stroke="#ffffff" stroke-width="0" fill="#fac209" fill-opacity="1" />
<text x="1772.8" y="106.0" font-size="20px" dominant-baseline="middle" text-anchor="middle" font-family="Arial" font-weight="normal" fill="#ffffff" >
RY
 </text>
<text x="1772.8" y="122.0" font-size="14.0px" dominant-baseline="middle" text-anchor="middle" font-family="Arial" font-weight="normal" fill="#ffffff" >
alpha_0
 </text>


<rect x="1832.8" y="90.0" width="40.0" height="40" rx="4" ry="4" stroke="#ffffff" stroke-width="0" fill="#5e7ce0" fill-opacity="1" />
<text x="1852.8" y="110.0" font-size="20px" dominant-baseline="middle" text-anchor="middle" font-family="Arial" font-weight="normal" fill="#ffffff" >
H
 </text>


<rect x="1392.8" y="150.0" width="40.0" height="40" rx="4" ry="4" stroke="#ffffff" stroke-width="0" fill="#5e7ce0" fill-opacity="1" />
<text x="1412.8" y="170.0" font-size="20px" dominant-baseline="middle" text-anchor="middle" font-family="Arial" font-weight="normal" fill="#ffffff" >
H
 </text>


<rect x="1732.8" y="210.0" width="40.0" height="40" rx="4" ry="4" stroke="#ffffff" stroke-width="0" fill="#5e7ce0" fill-opacity="1" />
<text x="1752.8" y="230.0" font-size="20px" dominant-baseline="middle" text-anchor="middle" font-family="Arial" font-weight="normal" fill="#ffffff" >
H
 </text>

<circle cx="1812.8" cy="230.0" r="4" fill="#16acff" />
<line x1="1812.8" x2="1812.8" y1="170.0" y2="230.0" stroke="#16acff" stroke-width="3" />
<rect x="1792.8" y="150.0" width="40" height="40" rx="4" ry="4" stroke="#ffffff" stroke-width="0" fill="#16acff" fill-opacity="1" />
<line x1="1798.8" x2="1826.8" y1="170.0" y2="170.0" stroke="#ffffff" stroke-width="4" />
<line x1="1812.8" x2="1812.8" y1="156.0" y2="184.0" stroke="#ffffff" stroke-width="4" />

<rect x="1852.8" y="150.0" width="80.0" height="40" rx="4" ry="4" stroke="#ffffff" stroke-width="0" fill="#fac209" fill-opacity="1" />
<text x="1892.8" y="166.0" font-size="20px" dominant-baseline="middle" text-anchor="middle" font-family="Arial" font-weight="normal" fill="#ffffff" >
RZ
 </text>
<text x="1892.8" y="182.0" font-size="14.0px" dominant-baseline="middle" text-anchor="middle" font-family="Arial" font-weight="normal" fill="#ffffff" >
beta_1
 </text>


<rect x="1952.8" y="150.0" width="40.0" height="40" rx="4" ry="4" stroke="#ffffff" stroke-width="0" fill="#5e7ce0" fill-opacity="1" />
<text x="1972.8" y="170.0" font-size="20px" dominant-baseline="middle" text-anchor="middle" font-family="Arial" font-weight="normal" fill="#ffffff" >
H
 </text>


<rect x="1852.8" y="210.0" width="40.0" height="40" rx="4" ry="4" stroke="#ffffff" stroke-width="0" fill="#5e7ce0" fill-opacity="1" />
<text x="1872.8" y="230.0" font-size="20px" dominant-baseline="middle" text-anchor="middle" font-family="Arial" font-weight="normal" fill="#ffffff" >
H
 </text>

<circle cx="2032.8" cy="230.0" r="4" fill="#16acff" />
<line x1="2032.8" x2="2032.8" y1="170.0" y2="230.0" stroke="#16acff" stroke-width="3" />
<rect x="2012.8" y="150.0" width="40" height="40" rx="4" ry="4" stroke="#ffffff" stroke-width="0" fill="#16acff" fill-opacity="1" />
<line x1="2018.8" x2="2046.8" y1="170.0" y2="170.0" stroke="#ffffff" stroke-width="4" />
<line x1="2032.8" x2="2032.8" y1="156.0" y2="184.0" stroke="#ffffff" stroke-width="4" />

<rect x="2072.8" y="150.0" width="40.0" height="40" rx="4" ry="4" stroke="#ffffff" stroke-width="0" fill="#5e7ce0" fill-opacity="1" />
<text x="2092.8" y="170.0" font-size="20px" dominant-baseline="middle" text-anchor="middle" font-family="Arial" font-weight="normal" fill="#ffffff" >
H
 </text>

<circle cx="2152.8" cy="170.0" r="4" fill="#16acff" />
<line x1="2152.8" x2="2152.8" y1="110.0" y2="170.0" stroke="#16acff" stroke-width="3" />
<rect x="2132.8" y="90.0" width="40" height="40" rx="4" ry="4" stroke="#ffffff" stroke-width="0" fill="#16acff" fill-opacity="1" />
<line x1="2138.8" x2="2166.8" y1="110.0" y2="110.0" stroke="#ffffff" stroke-width="4" />
<line x1="2152.8" x2="2152.8" y1="96.0" y2="124.0" stroke="#ffffff" stroke-width="4" />

<rect x="2192.8" y="90.0" width="80.0" height="40" rx="4" ry="4" stroke="#ffffff" stroke-width="0" fill="#fac209" fill-opacity="1" />
<text x="2232.8" y="106.0" font-size="20px" dominant-baseline="middle" text-anchor="middle" font-family="Arial" font-weight="normal" fill="#ffffff" >
RZ
 </text>
<text x="2232.8" y="122.0" font-size="14.0px" dominant-baseline="middle" text-anchor="middle" font-family="Arial" font-weight="normal" fill="#ffffff" >
beta_1
 </text>


<rect x="2192.8" y="150.0" width="40.0" height="40" rx="4" ry="4" stroke="#ffffff" stroke-width="0" fill="#5e7ce0" fill-opacity="1" />
<text x="2212.8" y="170.0" font-size="20px" dominant-baseline="middle" text-anchor="middle" font-family="Arial" font-weight="normal" fill="#ffffff" >
H
 </text>


<rect x="2292.8" y="90.0" width="40.0" height="40" rx="4" ry="4" stroke="#ffffff" stroke-width="0" fill="#5e7ce0" fill-opacity="1" />
<text x="2312.8" y="110.0" font-size="20px" dominant-baseline="middle" text-anchor="middle" font-family="Arial" font-weight="normal" fill="#ffffff" >
H
 </text>

<circle cx="2372.8" cy="110.0" r="4" fill="#16acff" />
<line x1="2372.8" x2="2372.8" y1="110.0" y2="170.0" stroke="#16acff" stroke-width="3" />
<rect x="2352.8" y="150.0" width="40" height="40" rx="4" ry="4" stroke="#ffffff" stroke-width="0" fill="#16acff" fill-opacity="1" />
<line x1="2358.8" x2="2386.8" y1="170.0" y2="170.0" stroke="#ffffff" stroke-width="4" />
<line x1="2372.8" x2="2372.8" y1="156.0" y2="184.0" stroke="#ffffff" stroke-width="4" />
<circle cx="2432.8" cy="170.0" r="4" fill="#16acff" />
<line x1="2432.8" x2="2432.8" y1="110.0" y2="170.0" stroke="#16acff" stroke-width="3" />
<rect x="2412.8" y="90.0" width="40" height="40" rx="4" ry="4" stroke="#ffffff" stroke-width="0" fill="#16acff" fill-opacity="1" />
<line x1="2418.8" x2="2446.8" y1="110.0" y2="110.0" stroke="#ffffff" stroke-width="4" />
<line x1="2432.8" x2="2432.8" y1="96.0" y2="124.0" stroke="#ffffff" stroke-width="4" />

<rect x="2472.8" y="90.0" width="40.0" height="40" rx="4" ry="4" stroke="#ffffff" stroke-width="0" fill="#5e7ce0" fill-opacity="1" />
<text x="2492.8" y="110.0" font-size="20px" dominant-baseline="middle" text-anchor="middle" font-family="Arial" font-weight="normal" fill="#ffffff" >
H
 </text>

<circle cx="2552.8" cy="110.0" r="4" fill="#16acff" />
<line x1="2552.8" x2="2552.8" y1="50.0" y2="110.0" stroke="#16acff" stroke-width="3" />
<rect x="2532.8" y="30.0" width="40" height="40" rx="4" ry="4" stroke="#ffffff" stroke-width="0" fill="#16acff" fill-opacity="1" />
<line x1="2538.8" x2="2566.8" y1="50.0" y2="50.0" stroke="#ffffff" stroke-width="4" />
<line x1="2552.8" x2="2552.8" y1="36.0" y2="64.0" stroke="#ffffff" stroke-width="4" />

<rect x="2592.8" y="30.0" width="80.0" height="40" rx="4" ry="4" stroke="#ffffff" stroke-width="0" fill="#fac209" fill-opacity="1" />
<text x="2632.8" y="46.0" font-size="20px" dominant-baseline="middle" text-anchor="middle" font-family="Arial" font-weight="normal" fill="#ffffff" >
RZ
 </text>
<text x="2632.8" y="62.0" font-size="14.0px" dominant-baseline="middle" text-anchor="middle" font-family="Arial" font-weight="normal" fill="#ffffff" >
beta_1
 </text>


<rect x="2692.8" y="30.0" width="40.0" height="40" rx="4" ry="4" stroke="#ffffff" stroke-width="0" fill="#5e7ce0" fill-opacity="1" />
<text x="2712.8" y="50.0" font-size="20px" dominant-baseline="middle" text-anchor="middle" font-family="Arial" font-weight="normal" fill="#ffffff" >
H
 </text>


<rect x="2592.8" y="90.0" width="40.0" height="40" rx="4" ry="4" stroke="#ffffff" stroke-width="0" fill="#5e7ce0" fill-opacity="1" />
<text x="2612.8" y="110.0" font-size="20px" dominant-baseline="middle" text-anchor="middle" font-family="Arial" font-weight="normal" fill="#ffffff" >
H
 </text>

<circle cx="2772.8" cy="110.0" r="4" fill="#16acff" />
<line x1="2772.8" x2="2772.8" y1="50.0" y2="110.0" stroke="#16acff" stroke-width="3" />
<rect x="2752.8" y="30.0" width="40" height="40" rx="4" ry="4" stroke="#ffffff" stroke-width="0" fill="#16acff" fill-opacity="1" />
<line x1="2758.8" x2="2786.8" y1="50.0" y2="50.0" stroke="#ffffff" stroke-width="4" />
<line x1="2772.8" x2="2772.8" y1="36.0" y2="64.0" stroke="#ffffff" stroke-width="4" />

<rect x="2812.8" y="90.0" width="80.0" height="40" rx="4" ry="4" stroke="#ffffff" stroke-width="0" fill="#fac209" fill-opacity="1" />
<text x="2852.8" y="106.0" font-size="20px" dominant-baseline="middle" text-anchor="middle" font-family="Arial" font-weight="normal" fill="#ffffff" >
RY
 </text>
<text x="2852.8" y="122.0" font-size="14.0px" dominant-baseline="middle" text-anchor="middle" font-family="Arial" font-weight="normal" fill="#ffffff" >
alpha_1
 </text>

<circle cx="2932.8" cy="110.0" r="4" fill="#16acff" />
<line x1="2932.8" x2="2932.8" y1="50.0" y2="110.0" stroke="#16acff" stroke-width="3" />
<rect x="2912.8" y="30.0" width="40" height="40" rx="4" ry="4" stroke="#ffffff" stroke-width="0" fill="#16acff" fill-opacity="1" />
<line x1="2918.8" x2="2946.8" y1="50.0" y2="50.0" stroke="#ffffff" stroke-width="4" />
<line x1="2932.8" x2="2932.8" y1="36.0" y2="64.0" stroke="#ffffff" stroke-width="4" />
<circle cx="2992.8" cy="50.0" r="4" fill="#16acff" />
<line x1="2992.8" x2="2992.8" y1="50.0" y2="110.0" stroke="#16acff" stroke-width="3" />
<rect x="2972.8" y="90.0" width="40" height="40" rx="4" ry="4" stroke="#ffffff" stroke-width="0" fill="#16acff" fill-opacity="1" />
<line x1="2978.8" x2="3006.8" y1="110.0" y2="110.0" stroke="#ffffff" stroke-width="4" />
<line x1="2992.8" x2="2992.8" y1="96.0" y2="124.0" stroke="#ffffff" stroke-width="4" />
<circle cx="3052.8" cy="110.0" r="4" fill="#16acff" />
<line x1="3052.8" x2="3052.8" y1="50.0" y2="110.0" stroke="#16acff" stroke-width="3" />
<rect x="3032.8" y="30.0" width="40" height="40" rx="4" ry="4" stroke="#ffffff" stroke-width="0" fill="#16acff" fill-opacity="1" />
<line x1="3038.8" x2="3066.8" y1="50.0" y2="50.0" stroke="#ffffff" stroke-width="4" />
<line x1="3052.8" x2="3052.8" y1="36.0" y2="64.0" stroke="#ffffff" stroke-width="4" />

<rect x="3092.8" y="90.0" width="40.0" height="40" rx="4" ry="4" stroke="#ffffff" stroke-width="0" fill="#5e7ce0" fill-opacity="1" />
<text x="3112.8" y="110.0" font-size="20px" dominant-baseline="middle" text-anchor="middle" font-family="Arial" font-weight="normal" fill="#ffffff" >
H
 </text>


<rect x="2472.8" y="150.0" width="40.0" height="40" rx="4" ry="4" stroke="#ffffff" stroke-width="0" fill="#5e7ce0" fill-opacity="1" />
<text x="2492.8" y="170.0" font-size="20px" dominant-baseline="middle" text-anchor="middle" font-family="Arial" font-weight="normal" fill="#ffffff" >
H
 </text>

<circle cx="2092.8" cy="290.0" r="4" fill="#16acff" />
<line x1="2092.8" x2="2092.8" y1="230.0" y2="290.0" stroke="#16acff" stroke-width="3" />
<rect x="2072.8" y="210.0" width="40" height="40" rx="4" ry="4" stroke="#ffffff" stroke-width="0" fill="#16acff" fill-opacity="1" />
<line x1="2078.8" x2="2106.8" y1="230.0" y2="230.0" stroke="#ffffff" stroke-width="4" />
<line x1="2092.8" x2="2092.8" y1="216.0" y2="244.0" stroke="#ffffff" stroke-width="4" />
<circle cx="2152.8" cy="230.0" r="4" fill="#16acff" />
<line x1="2152.8" x2="2152.8" y1="230.0" y2="290.0" stroke="#16acff" stroke-width="3" />
<rect x="2132.8" y="270.0" width="40" height="40" rx="4" ry="4" stroke="#ffffff" stroke-width="0" fill="#16acff" fill-opacity="1" />
<line x1="2138.8" x2="2166.8" y1="290.0" y2="290.0" stroke="#ffffff" stroke-width="4" />
<line x1="2152.8" x2="2152.8" y1="276.0" y2="304.0" stroke="#ffffff" stroke-width="4" />
<circle cx="2212.8" cy="290.0" r="4" fill="#16acff" />
<line x1="2212.8" x2="2212.8" y1="230.0" y2="290.0" stroke="#16acff" stroke-width="3" />
<rect x="2192.8" y="210.0" width="40" height="40" rx="4" ry="4" stroke="#ffffff" stroke-width="0" fill="#16acff" fill-opacity="1" />
<line x1="2198.8" x2="2226.8" y1="230.0" y2="230.0" stroke="#ffffff" stroke-width="4" />
<line x1="2212.8" x2="2212.8" y1="216.0" y2="244.0" stroke="#ffffff" stroke-width="4" />

<rect x="2252.8" y="210.0" width="40.0" height="40" rx="4" ry="4" stroke="#ffffff" stroke-width="0" fill="#5e7ce0" fill-opacity="1" />
<text x="2272.8" y="230.0" font-size="20px" dominant-baseline="middle" text-anchor="middle" font-family="Arial" font-weight="normal" fill="#ffffff" >
H
 </text>

<circle cx="2552.8" cy="170.0" r="4" fill="#16acff" />
<line x1="2552.8" x2="2552.8" y1="170.0" y2="230.0" stroke="#16acff" stroke-width="3" />
<rect x="2532.8" y="210.0" width="40" height="40" rx="4" ry="4" stroke="#ffffff" stroke-width="0" fill="#16acff" fill-opacity="1" />
<line x1="2538.8" x2="2566.8" y1="230.0" y2="230.0" stroke="#ffffff" stroke-width="4" />
<line x1="2552.8" x2="2552.8" y1="216.0" y2="244.0" stroke="#ffffff" stroke-width="4" />

<rect x="2592.8" y="210.0" width="80.0" height="40" rx="4" ry="4" stroke="#ffffff" stroke-width="0" fill="#fac209" fill-opacity="1" />
<text x="2632.8" y="226.0" font-size="20px" dominant-baseline="middle" text-anchor="middle" font-family="Arial" font-weight="normal" fill="#ffffff" >
RZ
 </text>
<text x="2632.8" y="242.0" font-size="14.0px" dominant-baseline="middle" text-anchor="middle" font-family="Arial" font-weight="normal" fill="#ffffff" >
beta_1
 </text>


<rect x="2692.8" y="210.0" width="40.0" height="40" rx="4" ry="4" stroke="#ffffff" stroke-width="0" fill="#5e7ce0" fill-opacity="1" />
<text x="2712.8" y="230.0" font-size="20px" dominant-baseline="middle" text-anchor="middle" font-family="Arial" font-weight="normal" fill="#ffffff" >
H
 </text>


<rect x="2592.8" y="150.0" width="40.0" height="40" rx="4" ry="4" stroke="#ffffff" stroke-width="0" fill="#5e7ce0" fill-opacity="1" />
<text x="2612.8" y="170.0" font-size="20px" dominant-baseline="middle" text-anchor="middle" font-family="Arial" font-weight="normal" fill="#ffffff" >
H
 </text>

<circle cx="2772.8" cy="170.0" r="4" fill="#16acff" />
<line x1="2772.8" x2="2772.8" y1="170.0" y2="230.0" stroke="#16acff" stroke-width="3" />
<rect x="2752.8" y="210.0" width="40" height="40" rx="4" ry="4" stroke="#ffffff" stroke-width="0" fill="#16acff" fill-opacity="1" />
<line x1="2758.8" x2="2786.8" y1="230.0" y2="230.0" stroke="#ffffff" stroke-width="4" />
<line x1="2772.8" x2="2772.8" y1="216.0" y2="244.0" stroke="#ffffff" stroke-width="4" />

<rect x="2812.8" y="210.0" width="40.0" height="40" rx="4" ry="4" stroke="#ffffff" stroke-width="0" fill="#5e7ce0" fill-opacity="1" />
<text x="2832.8" y="230.0" font-size="20px" dominant-baseline="middle" text-anchor="middle" font-family="Arial" font-weight="normal" fill="#ffffff" >
H
 </text>


<rect x="2252.8" y="270.0" width="40.0" height="40" rx="4" ry="4" stroke="#ffffff" stroke-width="0" fill="#5e7ce0" fill-opacity="1" />
<text x="2272.8" y="290.0" font-size="20px" dominant-baseline="middle" text-anchor="middle" font-family="Arial" font-weight="normal" fill="#ffffff" >
H
 </text>

<circle cx="2892.8" cy="290.0" r="4" fill="#16acff" />
<line x1="2892.8" x2="2892.8" y1="230.0" y2="290.0" stroke="#16acff" stroke-width="3" />
<rect x="2872.8" y="210.0" width="40" height="40" rx="4" ry="4" stroke="#ffffff" stroke-width="0" fill="#16acff" fill-opacity="1" />
<line x1="2878.8" x2="2906.8" y1="230.0" y2="230.0" stroke="#ffffff" stroke-width="4" />
<line x1="2892.8" x2="2892.8" y1="216.0" y2="244.0" stroke="#ffffff" stroke-width="4" />

<rect x="2932.8" y="210.0" width="80.0" height="40" rx="4" ry="4" stroke="#ffffff" stroke-width="0" fill="#fac209" fill-opacity="1" />
<text x="2972.8" y="226.0" font-size="20px" dominant-baseline="middle" text-anchor="middle" font-family="Arial" font-weight="normal" fill="#ffffff" >
RZ
 </text>
<text x="2972.8" y="242.0" font-size="14.0px" dominant-baseline="middle" text-anchor="middle" font-family="Arial" font-weight="normal" fill="#ffffff" >
beta_1
 </text>


<rect x="3032.8" y="210.0" width="40.0" height="40" rx="4" ry="4" stroke="#ffffff" stroke-width="0" fill="#5e7ce0" fill-opacity="1" />
<text x="3052.8" y="230.0" font-size="20px" dominant-baseline="middle" text-anchor="middle" font-family="Arial" font-weight="normal" fill="#ffffff" >
H
 </text>


<rect x="2932.8" y="270.0" width="40.0" height="40" rx="4" ry="4" stroke="#ffffff" stroke-width="0" fill="#5e7ce0" fill-opacity="1" />
<text x="2952.8" y="290.0" font-size="20px" dominant-baseline="middle" text-anchor="middle" font-family="Arial" font-weight="normal" fill="#ffffff" >
H
 </text>

<circle cx="3112.8" cy="290.0" r="4" fill="#16acff" />
<line x1="3112.8" x2="3112.8" y1="230.0" y2="290.0" stroke="#16acff" stroke-width="3" />
<rect x="3092.8" y="210.0" width="40" height="40" rx="4" ry="4" stroke="#ffffff" stroke-width="0" fill="#16acff" fill-opacity="1" />
<line x1="3098.8" x2="3126.8" y1="230.0" y2="230.0" stroke="#ffffff" stroke-width="4" />
<line x1="3112.8" x2="3112.8" y1="216.0" y2="244.0" stroke="#ffffff" stroke-width="4" />

<rect x="3152.8" y="210.0" width="80.0" height="40" rx="4" ry="4" stroke="#ffffff" stroke-width="0" fill="#fac209" fill-opacity="1" />
<text x="3192.8" y="226.0" font-size="20px" dominant-baseline="middle" text-anchor="middle" font-family="Arial" font-weight="normal" fill="#ffffff" >
RY
 </text>
<text x="3192.8" y="242.0" font-size="14.0px" dominant-baseline="middle" text-anchor="middle" font-family="Arial" font-weight="normal" fill="#ffffff" >
alpha_1
 </text>


<rect x="3152.8" y="270.0" width="80.0" height="40" rx="4" ry="4" stroke="#ffffff" stroke-width="0" fill="#fac209" fill-opacity="1" />
<text x="3192.8" y="286.0" font-size="20px" dominant-baseline="middle" text-anchor="middle" font-family="Arial" font-weight="normal" fill="#ffffff" >
RY
 </text>
<text x="3192.8" y="302.0" font-size="14.0px" dominant-baseline="middle" text-anchor="middle" font-family="Arial" font-weight="normal" fill="#ffffff" >
alpha_1
 </text>


<rect x="2812.8" y="150.0" width="40.0" height="40" rx="4" ry="4" stroke="#ffffff" stroke-width="0" fill="#5e7ce0" fill-opacity="1" />
<text x="2832.8" y="170.0" font-size="20px" dominant-baseline="middle" text-anchor="middle" font-family="Arial" font-weight="normal" fill="#ffffff" >
H
 </text>

<circle cx="3172.8" cy="170.0" r="4" fill="#16acff" />
<line x1="3172.8" x2="3172.8" y1="110.0" y2="170.0" stroke="#16acff" stroke-width="3" />
<rect x="3152.8" y="90.0" width="40" height="40" rx="4" ry="4" stroke="#ffffff" stroke-width="0" fill="#16acff" fill-opacity="1" />
<line x1="3158.8" x2="3186.8" y1="110.0" y2="110.0" stroke="#ffffff" stroke-width="4" />
<line x1="3172.8" x2="3172.8" y1="96.0" y2="124.0" stroke="#ffffff" stroke-width="4" />

<rect x="3212.8" y="90.0" width="80.0" height="40" rx="4" ry="4" stroke="#ffffff" stroke-width="0" fill="#fac209" fill-opacity="1" />
<text x="3252.8" y="106.0" font-size="20px" dominant-baseline="middle" text-anchor="middle" font-family="Arial" font-weight="normal" fill="#ffffff" >
RZ
 </text>
<text x="3252.8" y="122.0" font-size="14.0px" dominant-baseline="middle" text-anchor="middle" font-family="Arial" font-weight="normal" fill="#ffffff" >
beta_1
 </text>


<rect x="3212.8" y="150.0" width="40.0" height="40" rx="4" ry="4" stroke="#ffffff" stroke-width="0" fill="#5e7ce0" fill-opacity="1" />
<text x="3232.8" y="170.0" font-size="20px" dominant-baseline="middle" text-anchor="middle" font-family="Arial" font-weight="normal" fill="#ffffff" >
H
 </text>


<rect x="3312.8" y="90.0" width="40.0" height="40" rx="4" ry="4" stroke="#ffffff" stroke-width="0" fill="#5e7ce0" fill-opacity="1" />
<text x="3332.8" y="110.0" font-size="20px" dominant-baseline="middle" text-anchor="middle" font-family="Arial" font-weight="normal" fill="#ffffff" >
H
 </text>

<circle cx="3392.8" cy="170.0" r="4" fill="#16acff" />
<line x1="3392.8" x2="3392.8" y1="110.0" y2="170.0" stroke="#16acff" stroke-width="3" />
<rect x="3372.8" y="90.0" width="40" height="40" rx="4" ry="4" stroke="#ffffff" stroke-width="0" fill="#16acff" fill-opacity="1" />
<line x1="3378.8" x2="3406.8" y1="110.0" y2="110.0" stroke="#ffffff" stroke-width="4" />
<line x1="3392.8" x2="3392.8" y1="96.0" y2="124.0" stroke="#ffffff" stroke-width="4" />

<rect x="3432.8" y="90.0" width="80.0" height="40" rx="4" ry="4" stroke="#ffffff" stroke-width="0" fill="#fac209" fill-opacity="1" />
<text x="3472.8" y="106.0" font-size="20px" dominant-baseline="middle" text-anchor="middle" font-family="Arial" font-weight="normal" fill="#ffffff" >
RY
 </text>
<text x="3472.8" y="122.0" font-size="14.0px" dominant-baseline="middle" text-anchor="middle" font-family="Arial" font-weight="normal" fill="#ffffff" >
alpha_1
 </text>


<rect x="3432.8" y="150.0" width="80.0" height="40" rx="4" ry="4" stroke="#ffffff" stroke-width="0" fill="#fac209" fill-opacity="1" />
<text x="3472.8" y="166.0" font-size="20px" dominant-baseline="middle" text-anchor="middle" font-family="Arial" font-weight="normal" fill="#ffffff" >
RY
 </text>
<text x="3472.8" y="182.0" font-size="14.0px" dominant-baseline="middle" text-anchor="middle" font-family="Arial" font-weight="normal" fill="#ffffff" >
alpha_1
 </text>

</svg>