<svg xmlns="http://www.w3.org/2000/svg" width="4091.6400000000003" height="356.0">
<rect x="20" y="10" width="3896.8" height="320" fill="#ffffff" />
<text x="40.0" y="50.0" font-size="16px" dominant-baseline="middle" text-anchor="start" font-family="Arial" font-weight="normal" fill="#252b3a" >
q0:
 </text>
<text x="40.0" y="110.0" font-size="16px" dominant-baseline="middle" text-anchor="start" font-family="Arial" font-weight="normal" fill="#252b3a" >
q1:
 </text>
<text x="40.0" y="170.0" font-size="16px" dominant-baseline="middle" text-anchor="start" font-family="Arial" font-weight="normal" fill="#252b3a" >
q2:
 </text>
<text x="40.0" y="230.0" font-size="16px" dominant-baseline="middle" text-anchor="start" font-family="Arial" font-weight="normal" fill="#252b3a" >
q3:
 </text>
<text x="40.0" y="290.0" font-size="16px" dominant-baseline="middle" text-anchor="start" font-family="Arial" font-weight="normal" fill="#252b3a" >
q4:
 </text>
<line x1="68.8" x2="3896.8" y1="50.0" y2="50.0" stroke="#adb0b8" stroke-width="1" />
<line x1="68.8" x2="3896.8" y1="110.0" y2="110.0" stroke="#adb0b8" stroke-width="1" />
<line x1="68.8" x2="3896.8" y1="170.0" y2="170.0" stroke="#adb0b8" stroke-width="1" />
<line x1="68.8" x2="3896.8" y1="230.0" y2="230.0" stroke="#adb0b8" stroke-width="1" />
<line x1="68.8" x2="3896.8" y1="290.0" y2="290.0" stroke="#adb0b8" stroke-width="1" />

<rect x="92.8" y="210.0" width="40.0" height="40" rx="4" ry="4" stroke="#ffffff" stroke-width="0" fill="#5e7ce0" fill-opacity="1" />
<text x="112.8" y="230.0" font-size="20px" dominant-baseline="middle" text-anchor="middle" font-family="Arial" font-weight="normal" fill="#ffffff" >
H
 </text>


<rect x="92.8" y="150.0" width="40.0" height="40" rx="4" ry="4" stroke="#ffffff" stroke-width="0" fill="#5e7ce0" fill-opacity="1" />
<text x="112.8" y="170.0" font-size="20px" dominant-baseline="middle" text-anchor="middle" font-family="Arial" font-weight="normal" fill="#ffffff" >
H
 </text>


<rect x="92.8" y="90.0" width="40.0" height="40" rx="4" ry="4" stroke="#ffffff" stroke-width="0" fill="#5e7ce0" fill-opacity="1" />
<text x="112.8" y="110.0" font-size="20px" dominant-baseline="middle" text-anchor="middle" font-family="Arial" font-weight="normal" fill="#ffffff" >
H
 </text>


<rect x="92.8" y="270.0" width="40.0" height="40" rx="4" ry="4" stroke="#ffffff" stroke-width="0" fill="#5e7ce0" fill-opacity="1" />
<text x="112.8" y="290.0" font-size="20px" dominant-baseline="middle" text-anchor="middle" font-family="Arial" font-weight="normal" fill="#ffffff" >
H
 </text>


<rect x="92.8" y="30.0" width="40.0" height="40" rx="4" ry="4" stroke="#ffffff" stroke-width="0" fill="#5e7ce0" fill-opacity="1" />
<text x="112.8" y="50.0" font-size="20px" dominant-baseline="middle" text-anchor="middle" font-family="Arial" font-weight="normal" fill="#ffffff" >
H
 </text>


<rect x="152.8" y="210.0" width="40.0" height="40" rx="4" ry="4" stroke="#ffffff" stroke-width="0" fill="#5e7ce0" fill-opacity="1" />
<text x="172.8" y="230.0" font-size="20px" dominant-baseline="middle" text-anchor="middle" font-family="Arial" font-weight="normal" fill="#ffffff" >
H
 </text>


<rect x="152.8" y="150.0" width="40.0" height="40" rx="4" ry="4" stroke="#ffffff" stroke-width="0" fill="#5e7ce0" fill-opacity="1" />
<text x="172.8" y="170.0" font-size="20px" dominant-baseline="middle" text-anchor="middle" font-family="Arial" font-weight="normal" fill="#ffffff" >
H
 </text>

<circle cx="232.8" cy="230.0" r="4" fill="#16acff" />
<line x1="232.8" x2="232.8" y1="170.0" y2="230.0" stroke="#16acff" stroke-width="3" />
<rect x="212.8" y="150.0" width="40" height="40" rx="4" ry="4" stroke="#ffffff" stroke-width="0" fill="#16acff" fill-opacity="1" />
<line x1="218.8" x2="246.8" y1="170.0" y2="170.0" stroke="#ffffff" stroke-width="4" />
<line x1="232.8" x2="232.8" y1="156.0" y2="184.0" stroke="#ffffff" stroke-width="4" />

<rect x="272.8" y="150.0" width="80.0" height="40" rx="4" ry="4" stroke="#ffffff" stroke-width="0" fill="#fac209" fill-opacity="1" />
<text x="312.8" y="166.0" font-size="20px" dominant-baseline="middle" text-anchor="middle" font-family="Arial" font-weight="normal" fill="#ffffff" >
RZ
 </text>
<text x="312.8" y="182.0" font-size="14.0px" dominant-baseline="middle" text-anchor="middle" font-family="Arial" font-weight="normal" fill="#ffffff" >
beta_0
 </text>


<rect x="272.8" y="210.0" width="40.0" height="40" rx="4" ry="4" stroke="#ffffff" stroke-width="0" fill="#5e7ce0" fill-opacity="1" />
<text x="292.8" y="230.0" font-size="20px" dominant-baseline="middle" text-anchor="middle" font-family="Arial" font-weight="normal" fill="#ffffff" >
H
 </text>


<rect x="372.8" y="150.0" width="40.0" height="40" rx="4" ry="4" stroke="#ffffff" stroke-width="0" fill="#5e7ce0" fill-opacity="1" />
<text x="392.8" y="170.0" font-size="20px" dominant-baseline="middle" text-anchor="middle" font-family="Arial" font-weight="normal" fill="#ffffff" >
H
 </text>

<circle cx="452.8" cy="230.0" r="4" fill="#16acff" />
<line x1="452.8" x2="452.8" y1="170.0" y2="230.0" stroke="#16acff" stroke-width="3" />
<rect x="432.8" y="150.0" width="40" height="40" rx="4" ry="4" stroke="#ffffff" stroke-width="0" fill="#16acff" fill-opacity="1" />
<line x1="438.8" x2="466.8" y1="170.0" y2="170.0" stroke="#ffffff" stroke-width="4" />
<line x1="452.8" x2="452.8" y1="156.0" y2="184.0" stroke="#ffffff" stroke-width="4" />

<rect x="492.8" y="150.0" width="40.0" height="40" rx="4" ry="4" stroke="#ffffff" stroke-width="0" fill="#5e7ce0" fill-opacity="1" />
<text x="512.8" y="170.0" font-size="20px" dominant-baseline="middle" text-anchor="middle" font-family="Arial" font-weight="normal" fill="#ffffff" >
H
 </text>


<rect x="152.8" y="90.0" width="40.0" height="40" rx="4" ry="4" stroke="#ffffff" stroke-width="0" fill="#5e7ce0" fill-opacity="1" />
<text x="172.8" y="110.0" font-size="20px" dominant-baseline="middle" text-anchor="middle" font-family="Arial" font-weight="normal" fill="#ffffff" >
H
 </text>

<circle cx="572.8" cy="170.0" r="4" fill="#16acff" />
<line x1="572.8" x2="572.8" y1="110.0" y2="170.0" stroke="#16acff" stroke-width="3" />
<rect x="552.8" y="90.0" width="40" height="40" rx="4" ry="4" stroke="#ffffff" stroke-width="0" fill="#16acff" fill-opacity="1" />
<line x1="558.8" x2="586.8" y1="110.0" y2="110.0" stroke="#ffffff" stroke-width="4" />
<line x1="572.8" x2="572.8" y1="96.0" y2="124.0" stroke="#ffffff" stroke-width="4" />

<rect x="612.8" y="90.0" width="80.0" height="40" rx="4" ry="4" stroke="#ffffff" stroke-width="0" fill="#fac209" fill-opacity="1" />
<text x="652.8" y="106.0" font-size="20px" dominant-baseline="middle" text-anchor="middle" font-family="Arial" font-weight="normal" fill="#ffffff" >
RZ
 </text>
<text x="652.8" y="122.0" font-size="14.0px" dominant-baseline="middle" text-anchor="middle" font-family="Arial" font-weight="normal" fill="#ffffff" >
beta_0
 </text>


<rect x="612.8" y="150.0" width="40.0" height="40" rx="4" ry="4" stroke="#ffffff" stroke-width="0" fill="#5e7ce0" fill-opacity="1" />
<text x="632.8" y="170.0" font-size="20px" dominant-baseline="middle" text-anchor="middle" font-family="Arial" font-weight="normal" fill="#ffffff" >
H
 </text>


<rect x="712.8" y="90.0" width="40.0" height="40" rx="4" ry="4" stroke="#ffffff" stroke-width="0" fill="#5e7ce0" fill-opacity="1" />
<text x="732.8" y="110.0" font-size="20px" dominant-baseline="middle" text-anchor="middle" font-family="Arial" font-weight="normal" fill="#ffffff" >
H
 </text>

<circle cx="792.8" cy="170.0" r="4" fill="#16acff" />
<line x1="792.8" x2="792.8" y1="110.0" y2="170.0" stroke="#16acff" stroke-width="3" />
<rect x="772.8" y="90.0" width="40" height="40" rx="4" ry="4" stroke="#ffffff" stroke-width="0" fill="#16acff" fill-opacity="1" />
<line x1="778.8" x2="806.8" y1="110.0" y2="110.0" stroke="#ffffff" stroke-width="4" />
<line x1="792.8" x2="792.8" y1="96.0" y2="124.0" stroke="#ffffff" stroke-width="4" />
<circle cx="512.8" cy="290.0" r="4" fill="#16acff" />
<line x1="512.8" x2="512.8" y1="230.0" y2="290.0" stroke="#16acff" stroke-width="3" />
<rect x="492.8" y="210.0" width="40" height="40" rx="4" ry="4" stroke="#ffffff" stroke-width="0" fill="#16acff" fill-opacity="1" />
<line x1="498.8" x2="526.8" y1="230.0" y2="230.0" stroke="#ffffff" stroke-width="4" />
<line x1="512.8" x2="512.8" y1="216.0" y2="244.0" stroke="#ffffff" stroke-width="4" />
<circle cx="572.8" cy="230.0" r="4" fill="#16acff" />
<line x1="572.8" x2="572.8" y1="230.0" y2="290.0" stroke="#16acff" stroke-width="3" />
<rect x="552.8" y="270.0" width="40" height="40" rx="4" ry="4" stroke="#ffffff" stroke-width="0" fill="#16acff" fill-opacity="1" />
<line x1="558.8" x2="586.8" y1="290.0" y2="290.0" stroke="#ffffff" stroke-width="4" />
<line x1="572.8" x2="572.8" y1="276.0" y2="304.0" stroke="#ffffff" stroke-width="4" />
<circle cx="632.8" cy="290.0" r="4" fill="#16acff" />
<line x1="632.8" x2="632.8" y1="230.0" y2="290.0" stroke="#16acff" stroke-width="3" />
<rect x="612.8" y="210.0" width="40" height="40" rx="4" ry="4" stroke="#ffffff" stroke-width="0" fill="#16acff" fill-opacity="1" />
<line x1="618.8" x2="646.8" y1="230.0" y2="230.0" stroke="#ffffff" stroke-width="4" />
<line x1="632.8" x2="632.8" y1="216.0" y2="244.0" stroke="#ffffff" stroke-width="4" />
<circle cx="852.8" cy="170.0" r="4" fill="#16acff" />
<line x1="852.8" x2="852.8" y1="110.0" y2="170.0" stroke="#16acff" stroke-width="3" />
<rect x="832.8" y="90.0" width="40" height="40" rx="4" ry="4" stroke="#ffffff" stroke-width="0" fill="#16acff" fill-opacity="1" />
<line x1="838.8" x2="866.8" y1="110.0" y2="110.0" stroke="#ffffff" stroke-width="4" />
<line x1="852.8" x2="852.8" y1="96.0" y2="124.0" stroke="#ffffff" stroke-width="4" />
<circle cx="912.8" cy="110.0" r="4" fill="#16acff" />
<line x1="912.8" x2="912.8" y1="110.0" y2="170.0" stroke="#16acff" stroke-width="3" />
<rect x="892.8" y="150.0" width="40" height="40" rx="4" ry="4" stroke="#ffffff" stroke-width="0" fill="#16acff" fill-opacity="1" />
<line x1="898.8" x2="926.8" y1="170.0" y2="170.0" stroke="#ffffff" stroke-width="4" />
<line x1="912.8" x2="912.8" y1="156.0" y2="184.0" stroke="#ffffff" stroke-width="4" />
<circle cx="972.8" cy="170.0" r="4" fill="#16acff" />
<line x1="972.8" x2="972.8" y1="110.0" y2="170.0" stroke="#16acff" stroke-width="3" />
<rect x="952.8" y="90.0" width="40" height="40" rx="4" ry="4" stroke="#ffffff" stroke-width="0" fill="#16acff" fill-opacity="1" />
<line x1="958.8" x2="986.8" y1="110.0" y2="110.0" stroke="#ffffff" stroke-width="4" />
<line x1="972.8" x2="972.8" y1="96.0" y2="124.0" stroke="#ffffff" stroke-width="4" />

<rect x="1012.8" y="150.0" width="40.0" height="40" rx="4" ry="4" stroke="#ffffff" stroke-width="0" fill="#5e7ce0" fill-opacity="1" />
<text x="1032.8" y="170.0" font-size="20px" dominant-baseline="middle" text-anchor="middle" font-family="Arial" font-weight="normal" fill="#ffffff" >
H
 </text>


<rect x="672.8" y="210.0" width="40.0" height="40" rx="4" ry="4" stroke="#ffffff" stroke-width="0" fill="#5e7ce0" fill-opacity="1" />
<text x="692.8" y="230.0" font-size="20px" dominant-baseline="middle" text-anchor="middle" font-family="Arial" font-weight="normal" fill="#ffffff" >
H
 </text>

<circle cx="1092.8" cy="170.0" r="4" fill="#16acff" />
<line x1="1092.8" x2="1092.8" y1="170.0" y2="230.0" stroke="#16acff" stroke-width="3" />
<rect x="1072.8" y="210.0" width="40" height="40" rx="4" ry="4" stroke="#ffffff" stroke-width="0" fill="#16acff" fill-opacity="1" />
<line x1="1078.8" x2="1106.8" y1="230.0" y2="230.0" stroke="#ffffff" stroke-width="4" />
<line x1="1092.8" x2="1092.8" y1="216.0" y2="244.0" stroke="#ffffff" stroke-width="4" />

<rect x="1132.8" y="210.0" width="80.0" height="40" rx="4" ry="4" stroke="#ffffff" stroke-width="0" fill="#fac209" fill-opacity="1" />
<text x="1172.8" y="226.0" font-size="20px" dominant-baseline="middle" text-anchor="middle" font-family="Arial" font-weight="normal" fill="#ffffff" >
RZ
 </text>
<text x="1172.8" y="242.0" font-size="14.0px" dominant-baseline="middle" text-anchor="middle" font-family="Arial" font-weight="normal" fill="#ffffff" >
beta_0
 </text>


<rect x="1132.8" y="150.0" width="40.0" height="40" rx="4" ry="4" stroke="#ffffff" stroke-width="0" fill="#5e7ce0" fill-opacity="1" />
<text x="1152.8" y="170.0" font-size="20px" dominant-baseline="middle" text-anchor="middle" font-family="Arial" font-weight="normal" fill="#ffffff" >
H
 </text>


<rect x="1232.8" y="210.0" width="40.0" height="40" rx="4" ry="4" stroke="#ffffff" stroke-width="0" fill="#5e7ce0" fill-opacity="1" />
<text x="1252.8" y="230.0" font-size="20px" dominant-baseline="middle" text-anchor="middle" font-family="Arial" font-weight="normal" fill="#ffffff" >
H
 </text>

<circle cx="1312.8" cy="170.0" r="4" fill="#16acff" />
<line x1="1312.8" x2="1312.8" y1="170.0" y2="230.0" stroke="#16acff" stroke-width="3" />
<rect x="1292.8" y="210.0" width="40" height="40" rx="4" ry="4" stroke="#ffffff" stroke-width="0" fill="#16acff" fill-opacity="1" />
<line x1="1298.8" x2="1326.8" y1="230.0" y2="230.0" stroke="#ffffff" stroke-width="4" />
<line x1="1312.8" x2="1312.8" y1="216.0" y2="244.0" stroke="#ffffff" stroke-width="4" />

<rect x="1012.8" y="90.0" width="40.0" height="40" rx="4" ry="4" stroke="#ffffff" stroke-width="0" fill="#5e7ce0" fill-opacity="1" />
<text x="1032.8" y="110.0" font-size="20px" dominant-baseline="middle" text-anchor="middle" font-family="Arial" font-weight="normal" fill="#ffffff" >
H
 </text>


<rect x="152.8" y="30.0" width="40.0" height="40" rx="4" ry="4" stroke="#ffffff" stroke-width="0" fill="#5e7ce0" fill-opacity="1" />
<text x="172.8" y="50.0" font-size="20px" dominant-baseline="middle" text-anchor="middle" font-family="Arial" font-weight="normal" fill="#ffffff" >
H
 </text>

<circle cx="1092.8" cy="110.0" r="4" fill="#16acff" />
<line x1="1092.8" x2="1092.8" y1="50.0" y2="110.0" stroke="#16acff" stroke-width="3" />
<rect x="1072.8" y="30.0" width="40" height="40" rx="4" ry="4" stroke="#ffffff" stroke-width="0" fill="#16acff" fill-opacity="1" />
<line x1="1078.8" x2="1106.8" y1="50.0" y2="50.0" stroke="#ffffff" stroke-width="4" />
<line x1="1092.8" x2="1092.8" y1="36.0" y2="64.0" stroke="#ffffff" stroke-width="4" />

<rect x="1132.8" y="30.0" width="80.0" height="40" rx="4" ry="4" stroke="#ffffff" stroke-width="0" fill="#fac209" fill-opacity="1" />
<text x="1172.8" y="46.0" font-size="20px" dominant-baseline="middle" text-anchor="middle" font-family="Arial" font-weight="normal" fill="#ffffff" >
RZ
 </text>
<text x="1172.8" y="62.0" font-size="14.0px" dominant-baseline="middle" text-anchor="middle" font-family="Arial" font-weight="normal" fill="#ffffff" >
beta_0
 </text>


<rect x="1132.8" y="90.0" width="40.0" height="40" rx="4" ry="4" stroke="#ffffff" stroke-width="0" fill="#5e7ce0" fill-opacity="1" />
<text x="1152.8" y="110.0" font-size="20px" dominant-baseline="middle" text-anchor="middle" font-family="Arial" font-weight="normal" fill="#ffffff" >
H
 </text>


<rect x="1232.8" y="30.0" width="40.0" height="40" rx="4" ry="4" stroke="#ffffff" stroke-width="0" fill="#5e7ce0" fill-opacity="1" />
<text x="1252.8" y="50.0" font-size="20px" dominant-baseline="middle" text-anchor="middle" font-family="Arial" font-weight="normal" fill="#ffffff" >
H
 </text>

<circle cx="1312.8" cy="110.0" r="4" fill="#16acff" />
<line x1="1312.8" x2="1312.8" y1="50.0" y2="110.0" stroke="#16acff" stroke-width="3" />
<rect x="1292.8" y="30.0" width="40" height="40" rx="4" ry="4" stroke="#ffffff" stroke-width="0" fill="#16acff" fill-opacity="1" />
<line x1="1298.8" x2="1326.8" y1="50.0" y2="50.0" stroke="#ffffff" stroke-width="4" />
<line x1="1312.8" x2="1312.8" y1="36.0" y2="64.0" stroke="#ffffff" stroke-width="4" />

<rect x="672.8" y="270.0" width="40.0" height="40" rx="4" ry="4" stroke="#ffffff" stroke-width="0" fill="#5e7ce0" fill-opacity="1" />
<text x="692.8" y="290.0" font-size="20px" dominant-baseline="middle" text-anchor="middle" font-family="Arial" font-weight="normal" fill="#ffffff" >
H
 </text>


<rect x="1352.8" y="210.0" width="40.0" height="40" rx="4" ry="4" stroke="#ffffff" stroke-width="0" fill="#5e7ce0" fill-opacity="1" />
<text x="1372.8" y="230.0" font-size="20px" dominant-baseline="middle" text-anchor="middle" font-family="Arial" font-weight="normal" fill="#ffffff" >
H
 </text>

<circle cx="1432.8" cy="290.0" r="4" fill="#16acff" />
<line x1="1432.8" x2="1432.8" y1="230.0" y2="290.0" stroke="#16acff" stroke-width="3" />
<rect x="1412.8" y="210.0" width="40" height="40" rx="4" ry="4" stroke="#ffffff" stroke-width="0" fill="#16acff" fill-opacity="1" />
<line x1="1418.8" x2="1446.8" y1="230.0" y2="230.0" stroke="#ffffff" stroke-width="4" />
<line x1="1432.8" x2="1432.8" y1="216.0" y2="244.0" stroke="#ffffff" stroke-width="4" />

<rect x="1472.8" y="210.0" width="80.0" height="40" rx="4" ry="4" stroke="#ffffff" stroke-width="0" fill="#fac209" fill-opacity="1" />
<text x="1512.8" y="226.0" font-size="20px" dominant-baseline="middle" text-anchor="middle" font-family="Arial" font-weight="normal" fill="#ffffff" >
RZ
 </text>
<text x="1512.8" y="242.0" font-size="14.0px" dominant-baseline="middle" text-anchor="middle" font-family="Arial" font-weight="normal" fill="#ffffff" >
beta_0
 </text>


<rect x="1472.8" y="270.0" width="40.0" height="40" rx="4" ry="4" stroke="#ffffff" stroke-width="0" fill="#5e7ce0" fill-opacity="1" />
<text x="1492.8" y="290.0" font-size="20px" dominant-baseline="middle" text-anchor="middle" font-family="Arial" font-weight="normal" fill="#ffffff" >
H
 </text>


<rect x="1572.8" y="210.0" width="40.0" height="40" rx="4" ry="4" stroke="#ffffff" stroke-width="0" fill="#5e7ce0" fill-opacity="1" />
<text x="1592.8" y="230.0" font-size="20px" dominant-baseline="middle" text-anchor="middle" font-family="Arial" font-weight="normal" fill="#ffffff" >
H
 </text>

<circle cx="1652.8" cy="290.0" r="4" fill="#16acff" />
<line x1="1652.8" x2="1652.8" y1="230.0" y2="290.0" stroke="#16acff" stroke-width="3" />
<rect x="1632.8" y="210.0" width="40" height="40" rx="4" ry="4" stroke="#ffffff" stroke-width="0" fill="#16acff" fill-opacity="1" />
<line x1="1638.8" x2="1666.8" y1="230.0" y2="230.0" stroke="#ffffff" stroke-width="4" />
<line x1="1652.8" x2="1652.8" y1="216.0" y2="244.0" stroke="#ffffff" stroke-width="4" />

<rect x="1352.8" y="90.0" width="80.0" height="40" rx="4" ry="4" stroke="#ffffff" stroke-width="0" fill="#fac209" fill-opacity="1" />
<text x="1392.8" y="106.0" font-size="20px" dominant-baseline="middle" text-anchor="middle" font-family="Arial" font-weight="normal" fill="#ffffff" >
RY
 </text>
<text x="1392.8" y="122.0" font-size="14.0px" dominant-baseline="middle" text-anchor="middle" font-family="Arial" font-weight="normal" fill="#ffffff" >
alpha_0
 </text>


<rect x="1692.8" y="270.0" width="80.0" height="40" rx="4" ry="4" stroke="#ffffff" stroke-width="0" fill="#fac209" fill-opacity="1" />
<text x="1732.8" y="286.0" font-size="20px" dominant-baseline="middle" text-anchor="middle" font-family="Arial" font-weight="normal" fill="#ffffff" >
RY
 </text>
<text x="1732.8" y="302.0" font-size="14.0px" dominant-baseline="middle" text-anchor="middle" font-family="Arial" font-weight="normal" fill="#ffffff" >
alpha_0
 </text>


<rect x="1692.8" y="210.0" width="80.0" height="40" rx="4" ry="4" stroke="#ffffff" stroke-width="0" fill="#fac209" fill-opacity="1" />
<text x="1732.8" y="226.0" font-size="20px" dominant-baseline="middle" text-anchor="middle" font-family="Arial" font-weight="normal" fill="#ffffff" >
RY
 </text>
<text x="1732.8" y="242.0" font-size="14.0px" dominant-baseline="middle" text-anchor="middle" font-family="Arial" font-weight="normal" fill="#ffffff" >
alpha_0
 </text>

<circle cx="1472.8" cy="170.0" r="4" fill="#16acff" />
<line x1="1472.8" x2="1472.8" y1="110.0" y2="170.0" stroke="#16acff" stroke-width="3" />
<rect x="1452.8" y="90.0" width="40" height="40" rx="4" ry="4" stroke="#ffffff" stroke-width="0" fill="#16acff" fill-opacity="1" />
<line x1="1458.8" x2="1486.8" y1="110.0" y2="110.0" stroke="#ffffff" stroke-width="4" />
<line x1="1472.8" x2="1472.8" y1="96.0" y2="124.0" stroke="#ffffff" stroke-width="4" />
<circle cx="1532.8" cy="110.0" r="4" fill="#16acff" />
<line x1="1532.8" x2="1532.8" y1="110.0" y2="170.0" stroke="#16acff" stroke-width="3" />
<rect x="1512.8" y="150.0" width="40" height="40" rx="4" ry="4" stroke="#ffffff" stroke-width="0" fill="#16acff" fill-opacity="1" />
<line x1="1518.8" x2="1546.8" y1="170.0" y2="170.0" stroke="#ffffff" stroke-width="4" />
<line x1="1532.8" x2="1532.8" y1="156.0" y2="184.0" stroke="#ffffff" stroke-width="4" />
<circle cx="1592.8" cy="170.0" r="4" fill="#16acff" />
<line x1="1592.8" x2="1592.8" y1="110.0" y2="170.0" stroke="#16acff" stroke-width="3" />
<rect x="1572.8" y="90.0" width="40" height="40" rx="4" ry="4" stroke="#ffffff" stroke-width="0" fill="#16acff" fill-opacity="1" />
<line x1="1578.8" x2="1606.8" y1="110.0" y2="110.0" stroke="#ffffff" stroke-width="4" />
<line x1="1592.8" x2="1592.8" y1="96.0" y2="124.0" stroke="#ffffff" stroke-width="4" />

<rect x="1632.8" y="90.0" width="40.0" height="40" rx="4" ry="4" stroke="#ffffff" stroke-width="0" fill="#5e7ce0" fill-opacity="1" />
<text x="1652.8" y="110.0" font-size="20px" dominant-baseline="middle" text-anchor="middle" font-family="Arial" font-weight="normal" fill="#ffffff" >
H
 </text>


<rect x="1352.8" y="30.0" width="40.0" height="40" rx="4" ry="4" stroke="#ffffff" stroke-width="0" fill="#5e7ce0" fill-opacity="1" />
<text x="1372.8" y="50.0" font-size="20px" dominant-baseline="middle" text-anchor="middle" font-family="Arial" font-weight="normal" fill="#ffffff" >
H
 </text>

<circle cx="1712.8" cy="110.0" r="4" fill="#16acff" />
<line x1="1712.8" x2="1712.8" y1="50.0" y2="110.0" stroke="#16acff" stroke-width="3" />
<rect x="1692.8" y="30.0" width="40" height="40" rx="4" ry="4" stroke="#ffffff" stroke-width="0" fill="#16acff" fill-opacity="1" />
<line x1="1698.8" x2="1726.8" y1="50.0" y2="50.0" stroke="#ffffff" stroke-width="4" />
<line x1="1712.8" x2="1712.8" y1="36.0" y2="64.0" stroke="#ffffff" stroke-width="4" />

<rect x="1752.8" y="30.0" width="80.0" height="40" rx="4" ry="4" stroke="#ffffff" stroke-width="0" fill="#fac209" fill-opacity="1" />
<text x="1792.8" y="46.0" font-size="20px" dominant-baseline="middle" text-anchor="middle" font-family="Arial" font-weight="normal" fill="#ffffff" >
RZ
 </text>
<text x="1792.8" y="62.0" font-size="14.0px" dominant-baseline="middle" text-anchor="middle" font-family="Arial" font-weight="normal" fill="#ffffff" >
beta_0
 </text>


<rect x="1752.8" y="90.0" width="40.0" height="40" rx="4" ry="4" stroke="#ffffff" stroke-width="0" fill="#5e7ce0" fill-opacity="1" />
<text x="1772.8" y="110.0" font-size="20px" dominant-baseline="middle" text-anchor="middle" font-family="Arial" font-weight="normal" fill="#ffffff" >
H
 </text>


<rect x="1852.8" y="30.0" width="40.0" height="40" rx="4" ry="4" stroke="#ffffff" stroke-width="0" fill="#5e7ce0" fill-opacity="1" />
<text x="1872.8" y="50.0" font-size="20px" dominant-baseline="middle" text-anchor="middle" font-family="Arial" font-weight="normal" fill="#ffffff" >
H
 </text>

<circle cx="1932.8" cy="110.0" r="4" fill="#16acff" />
<line x1="1932.8" x2="1932.8" y1="50.0" y2="110.0" stroke="#16acff" stroke-width="3" />
<rect x="1912.8" y="30.0" width="40" height="40" rx="4" ry="4" stroke="#ffffff" stroke-width="0" fill="#16acff" fill-opacity="1" />
<line x1="1918.8" x2="1946.8" y1="50.0" y2="50.0" stroke="#ffffff" stroke-width="4" />
<line x1="1932.8" x2="1932.8" y1="36.0" y2="64.0" stroke="#ffffff" stroke-width="4" />

<rect x="1972.8" y="90.0" width="80.0" height="40" rx="4" ry="4" stroke="#ffffff" stroke-width="0" fill="#fac209" fill-opacity="1" />
<text x="2012.8" y="106.0" font-size="20px" dominant-baseline="middle" text-anchor="middle" font-family="Arial" font-weight="normal" fill="#ffffff" >
RY
 </text>
<text x="2012.8" y="122.0" font-size="14.0px" dominant-baseline="middle" text-anchor="middle" font-family="Arial" font-weight="normal" fill="#ffffff" >
alpha_0
 </text>


<rect x="1972.8" y="30.0" width="80.0" height="40" rx="4" ry="4" stroke="#ffffff" stroke-width="0" fill="#fac209" fill-opacity="1" />
<text x="2012.8" y="46.0" font-size="20px" dominant-baseline="middle" text-anchor="middle" font-family="Arial" font-weight="normal" fill="#ffffff" >
RY
 </text>
<text x="2012.8" y="62.0" font-size="14.0px" dominant-baseline="middle" text-anchor="middle" font-family="Arial" font-weight="normal" fill="#ffffff" >
alpha_0
 </text>

<circle cx="1812.8" cy="290.0" r="4" fill="#16acff" />
<line x1="1812.8" x2="1812.8" y1="230.0" y2="290.0" stroke="#16acff" stroke-width="3" />
<rect x="1792.8" y="210.0" width="40" height="40" rx="4" ry="4" stroke="#ffffff" stroke-width="0" fill="#16acff" fill-opacity="1" />
<line x1="1798.8" x2="1826.8" y1="230.0" y2="230.0" stroke="#ffffff" stroke-width="4" />
<line x1="1812.8" x2="1812.8" y1="216.0" y2="244.0" stroke="#ffffff" stroke-width="4" />
<circle cx="1872.8" cy="230.0" r="4" fill="#16acff" />
<line x1="1872.8" x2="1872.8" y1="230.0" y2="290.0" stroke="#16acff" stroke-width="3" />
<rect x="1852.8" y="270.0" width="40" height="40" rx="4" ry="4" stroke="#ffffff" stroke-width="0" fill="#16acff" fill-opacity="1" />
<line x1="1858.8" x2="1886.8" y1="290.0" y2="290.0" stroke="#ffffff" stroke-width="4" />
<line x1="1872.8" x2="1872.8" y1="276.0" y2="304.0" stroke="#ffffff" stroke-width="4" />
<circle cx="1932.8" cy="290.0" r="4" fill="#16acff" />
<line x1="1932.8" x2="1932.8" y1="230.0" y2="290.0" stroke="#16acff" stroke-width="3" />
<rect x="1912.8" y="210.0" width="40" height="40" rx="4" ry="4" stroke="#ffffff" stroke-width="0" fill="#16acff" fill-opacity="1" />
<line x1="1918.8" x2="1946.8" y1="230.0" y2="230.0" stroke="#ffffff" stroke-width="4" />
<line x1="1932.8" x2="1932.8" y1="216.0" y2="244.0" stroke="#ffffff" stroke-width="4" />

<rect x="1972.8" y="210.0" width="40.0" height="40" rx="4" ry="4" stroke="#ffffff" stroke-width="0" fill="#5e7ce0" fill-opacity="1" />
<text x="1992.8" y="230.0" font-size="20px" dominant-baseline="middle" text-anchor="middle" font-family="Arial" font-weight="normal" fill="#ffffff" >
H
 </text>


<rect x="1632.8" y="150.0" width="40.0" height="40" rx="4" ry="4" stroke="#ffffff" stroke-width="0" fill="#5e7ce0" fill-opacity="1" />
<text x="1652.8" y="170.0" font-size="20px" dominant-baseline="middle" text-anchor="middle" font-family="Arial" font-weight="normal" fill="#ffffff" >
H
 </text>

<circle cx="2052.8" cy="230.0" r="4" fill="#16acff" />
<line x1="2052.8" x2="2052.8" y1="170.0" y2="230.0" stroke="#16acff" stroke-width="3" />
<rect x="2032.8" y="150.0" width="40" height="40" rx="4" ry="4" stroke="#ffffff" stroke-width="0" fill="#16acff" fill-opacity="1" />
<line x1="2038.8" x2="2066.8" y1="170.0" y2="170.0" stroke="#ffffff" stroke-width="4" />
<line x1="2052.8" x2="2052.8" y1="156.0" y2="184.0" stroke="#ffffff" stroke-width="4" />

<rect x="2092.8" y="150.0" width="80.0" height="40" rx="4" ry="4" stroke="#ffffff" stroke-width="0" fill="#fac209" fill-opacity="1" />
<text x="2132.8" y="166.0" font-size="20px" dominant-baseline="middle" text-anchor="middle" font-family="Arial" font-weight="normal" fill="#ffffff" >
RZ
 </text>
<text x="2132.8" y="182.0" font-size="14.0px" dominant-baseline="middle" text-anchor="middle" font-family="Arial" font-weight="normal" fill="#ffffff" >
beta_1
 </text>


<rect x="2092.8" y="210.0" width="40.0" height="40" rx="4" ry="4" stroke="#ffffff" stroke-width="0" fill="#5e7ce0" fill-opacity="1" />
<text x="2112.8" y="230.0" font-size="20px" dominant-baseline="middle" text-anchor="middle" font-family="Arial" font-weight="normal" fill="#ffffff" >
H
 </text>


<rect x="2192.8" y="150.0" width="40.0" height="40" rx="4" ry="4" stroke="#ffffff" stroke-width="0" fill="#5e7ce0" fill-opacity="1" />
<text x="2212.8" y="170.0" font-size="20px" dominant-baseline="middle" text-anchor="middle" font-family="Arial" font-weight="normal" fill="#ffffff" >
H
 </text>

<circle cx="2272.8" cy="230.0" r="4" fill="#16acff" />
<line x1="2272.8" x2="2272.8" y1="170.0" y2="230.0" stroke="#16acff" stroke-width="3" />
<rect x="2252.8" y="150.0" width="40" height="40" rx="4" ry="4" stroke="#ffffff" stroke-width="0" fill="#16acff" fill-opacity="1" />
<line x1="2258.8" x2="2286.8" y1="170.0" y2="170.0" stroke="#ffffff" stroke-width="4" />
<line x1="2272.8" x2="2272.8" y1="156.0" y2="184.0" stroke="#ffffff" stroke-width="4" />

<rect x="2312.8" y="150.0" width="40.0" height="40" rx="4" ry="4" stroke="#ffffff" stroke-width="0" fill="#5e7ce0" fill-opacity="1" />
<text x="2332.8" y="170.0" font-size="20px" dominant-baseline="middle" text-anchor="middle" font-family="Arial" font-weight="normal" fill="#ffffff" >
H
 </text>


<rect x="2072.8" y="90.0" width="40.0" height="40" rx="4" ry="4" stroke="#ffffff" stroke-width="0" fill="#5e7ce0" fill-opacity="1" />
<text x="2092.8" y="110.0" font-size="20px" dominant-baseline="middle" text-anchor="middle" font-family="Arial" font-weight="normal" fill="#ffffff" >
H
 </text>

<circle cx="2392.8" cy="170.0" r="4" fill="#16acff" />
<line x1="2392.8" x2="2392.8" y1="110.0" y2="170.0" stroke="#16acff" stroke-width="3" />
<rect x="2372.8" y="90.0" width="40" height="40" rx="4" ry="4" stroke="#ffffff" stroke-width="0" fill="#16acff" fill-opacity="1" />
<line x1="2378.8" x2="2406.8" y1="110.0" y2="110.0" stroke="#ffffff" stroke-width="4" />
<line x1="2392.8" x2="2392.8" y1="96.0" y2="124.0" stroke="#ffffff" stroke-width="4" />

<rect x="2432.8" y="90.0" width="80.0" height="40" rx="4" ry="4" stroke="#ffffff" stroke-width="0" fill="#fac209" fill-opacity="1" />
<text x="2472.8" y="106.0" font-size="20px" dominant-baseline="middle" text-anchor="middle" font-family="Arial" font-weight="normal" fill="#ffffff" >
RZ
 </text>
<text x="2472.8" y="122.0" font-size="14.0px" dominant-baseline="middle" text-anchor="middle" font-family="Arial" font-weight="normal" fill="#ffffff" >
beta_1
 </text>


<rect x="2432.8" y="150.0" width="40.0" height="40" rx="4" ry="4" stroke="#ffffff" stroke-width="0" fill="#5e7ce0" fill-opacity="1" />
<text x="2452.8" y="170.0" font-size="20px" dominant-baseline="middle" text-anchor="middle" font-family="Arial" font-weight="normal" fill="#ffffff" >
H
 </text>


<rect x="2532.8" y="90.0" width="40.0" height="40" rx="4" ry="4" stroke="#ffffff" stroke-width="0" fill="#5e7ce0" fill-opacity="1" />
<text x="2552.8" y="110.0" font-size="20px" dominant-baseline="middle" text-anchor="middle" font-family="Arial" font-weight="normal" fill="#ffffff" >
H
 </text>

<circle cx="2612.8" cy="170.0" r="4" fill="#16acff" />
<line x1="2612.8" x2="2612.8" y1="110.0" y2="170.0" stroke="#16acff" stroke-width="3" />
<rect x="2592.8" y="90.0" width="40" height="40" rx="4" ry="4" stroke="#ffffff" stroke-width="0" fill="#16acff" fill-opacity="1" />
<line x1="2598.8" x2="2626.8" y1="110.0" y2="110.0" stroke="#ffffff" stroke-width="4" />
<line x1="2612.8" x2="2612.8" y1="96.0" y2="124.0" stroke="#ffffff" stroke-width="4" />
<circle cx="2672.8" cy="170.0" r="4" fill="#16acff" />
<line x1="2672.8" x2="2672.8" y1="110.0" y2="170.0" stroke="#16acff" stroke-width="3" />
<rect x="2652.8" y="90.0" width="40" height="40" rx="4" ry="4" stroke="#ffffff" stroke-width="0" fill="#16acff" fill-opacity="1" />
<line x1="2658.8" x2="2686.8" y1="110.0" y2="110.0" stroke="#ffffff" stroke-width="4" />
<line x1="2672.8" x2="2672.8" y1="96.0" y2="124.0" stroke="#ffffff" stroke-width="4" />
<circle cx="2732.8" cy="110.0" r="4" fill="#16acff" />
<line x1="2732.8" x2="2732.8" y1="110.0" y2="170.0" stroke="#16acff" stroke-width="3" />
<rect x="2712.8" y="150.0" width="40" height="40" rx="4" ry="4" stroke="#ffffff" stroke-width="0" fill="#16acff" fill-opacity="1" />
<line x1="2718.8" x2="2746.8" y1="170.0" y2="170.0" stroke="#ffffff" stroke-width="4" />
<line x1="2732.8" x2="2732.8" y1="156.0" y2="184.0" stroke="#ffffff" stroke-width="4" />
<circle cx="2792.8" cy="170.0" r="4" fill="#16acff" />
<line x1="2792.8" x2="2792.8" y1="110.0" y2="170.0" stroke="#16acff" stroke-width="3" />
<rect x="2772.8" y="90.0" width="40" height="40" rx="4" ry="4" stroke="#ffffff" stroke-width="0" fill="#16acff" fill-opacity="1" />
<line x1="2778.8" x2="2806.8" y1="110.0" y2="110.0" stroke="#ffffff" stroke-width="4" />
<line x1="2792.8" x2="2792.8" y1="96.0" y2="124.0" stroke="#ffffff" stroke-width="4" />

<rect x="2832.8" y="90.0" width="40.0" height="40" rx="4" ry="4" stroke="#ffffff" stroke-width="0" fill="#5e7ce0" fill-opacity="1" />
<text x="2852.8" y="110.0" font-size="20px" dominant-baseline="middle" text-anchor="middle" font-family="Arial" font-weight="normal" fill="#ffffff" >
H
 </text>


<rect x="2072.8" y="30.0" width="40.0" height="40" rx="4" ry="4" stroke="#ffffff" stroke-width="0" fill="#5e7ce0" fill-opacity="1" />
<text x="2092.8" y="50.0" font-size="20px" dominant-baseline="middle" text-anchor="middle" font-family="Arial" font-weight="normal" fill="#ffffff" >
H
 </text>

<circle cx="2912.8" cy="110.0" r="4" fill="#16acff" />
<line x1="2912.8" x2="2912.8" y1="50.0" y2="110.0" stroke="#16acff" stroke-width="3" />
<rect x="2892.8" y="30.0" width="40" height="40" rx="4" ry="4" stroke="#ffffff" stroke-width="0" fill="#16acff" fill-opacity="1" />
<line x1="2898.8" x2="2926.8" y1="50.0" y2="50.0" stroke="#ffffff" stroke-width="4" />
<line x1="2912.8" x2="2912.8" y1="36.0" y2="64.0" stroke="#ffffff" stroke-width="4" />

<rect x="2952.8" y="30.0" width="80.0" height="40" rx="4" ry="4" stroke="#ffffff" stroke-width="0" fill="#fac209" fill-opacity="1" />
<text x="2992.8" y="46.0" font-size="20px" dominant-baseline="middle" text-anchor="middle" font-family="Arial" font-weight="normal" fill="#ffffff" >
RZ
 </text>
<text x="2992.8" y="62.0" font-size="14.0px" dominant-baseline="middle" text-anchor="middle" font-family="Arial" font-weight="normal" fill="#ffffff" >
beta_1
 </text>


<rect x="2952.8" y="90.0" width="40.0" height="40" rx="4" ry="4" stroke="#ffffff" stroke-width="0" fill="#5e7ce0" fill-opacity="1" />
<text x="2972.8" y="110.0" font-size="20px" dominant-baseline="middle" text-anchor="middle" font-family="Arial" font-weight="normal" fill="#ffffff" >
H
 </text>


<rect x="3052.8" y="30.0" width="40.0" height="40" rx="4" ry="4" stroke="#ffffff" stroke-width="0" fill="#5e7ce0" fill-opacity="1" />
<text x="3072.8" y="50.0" font-size="20px" dominant-baseline="middle" text-anchor="middle" font-family="Arial" font-weight="normal" fill="#ffffff" >
H
 </text>

<circle cx="3132.8" cy="110.0" r="4" fill="#16acff" />
<line x1="3132.8" x2="3132.8" y1="50.0" y2="110.0" stroke="#16acff" stroke-width="3" />
<rect x="3112.8" y="30.0" width="40" height="40" rx="4" ry="4" stroke="#ffffff" stroke-width="0" fill="#16acff" fill-opacity="1" />
<line x1="3118.8" x2="3146.8" y1="50.0" y2="50.0" stroke="#ffffff" stroke-width="4" />
<line x1="3132.8" x2="3132.8" y1="36.0" y2="64.0" stroke="#ffffff" stroke-width="4" />

<rect x="3172.8" y="90.0" width="80.0" height="40" rx="4" ry="4" stroke="#ffffff" stroke-width="0" fill="#fac209" fill-opacity="1" />
<text x="3212.8" y="106.0" font-size="20px" dominant-baseline="middle" text-anchor="middle" font-family="Arial" font-weight="normal" fill="#ffffff" >
RY
 </text>
<text x="3212.8" y="122.0" font-size="14.0px" dominant-baseline="middle" text-anchor="middle" font-family="Arial" font-weight="normal" fill="#ffffff" >
alpha_1
 </text>

<circle cx="2332.8" cy="290.0" r="4" fill="#16acff" />
<line x1="2332.8" x2="2332.8" y1="230.0" y2="290.0" stroke="#16acff" stroke-width="3" />
<rect x="2312.8" y="210.0" width="40" height="40" rx="4" ry="4" stroke="#ffffff" stroke-width="0" fill="#16acff" fill-opacity="1" />
<line x1="2318.8" x2="2346.8" y1="230.0" y2="230.0" stroke="#ffffff" stroke-width="4" />
<line x1="2332.8" x2="2332.8" y1="216.0" y2="244.0" stroke="#ffffff" stroke-width="4" />
<circle cx="2392.8" cy="230.0" r="4" fill="#16acff" />
<line x1="2392.8" x2="2392.8" y1="230.0" y2="290.0" stroke="#16acff" stroke-width="3" />
<rect x="2372.8" y="270.0" width="40" height="40" rx="4" ry="4" stroke="#ffffff" stroke-width="0" fill="#16acff" fill-opacity="1" />
<line x1="2378.8" x2="2406.8" y1="290.0" y2="290.0" stroke="#ffffff" stroke-width="4" />
<line x1="2392.8" x2="2392.8" y1="276.0" y2="304.0" stroke="#ffffff" stroke-width="4" />
<circle cx="2452.8" cy="290.0" r="4" fill="#16acff" />
<line x1="2452.8" x2="2452.8" y1="230.0" y2="290.0" stroke="#16acff" stroke-width="3" />
<rect x="2432.8" y="210.0" width="40" height="40" rx="4" ry="4" stroke="#ffffff" stroke-width="0" fill="#16acff" fill-opacity="1" />
<line x1="2438.8" x2="2466.8" y1="230.0" y2="230.0" stroke="#ffffff" stroke-width="4" />
<line x1="2452.8" x2="2452.8" y1="216.0" y2="244.0" stroke="#ffffff" stroke-width="4" />

<rect x="2832.8" y="150.0" width="40.0" height="40" rx="4" ry="4" stroke="#ffffff" stroke-width="0" fill="#5e7ce0" fill-opacity="1" />
<text x="2852.8" y="170.0" font-size="20px" dominant-baseline="middle" text-anchor="middle" font-family="Arial" font-weight="normal" fill="#ffffff" >
H
 </text>


<rect x="2492.8" y="210.0" width="40.0" height="40" rx="4" ry="4" stroke="#ffffff" stroke-width="0" fill="#5e7ce0" fill-opacity="1" />
<text x="2512.8" y="230.0" font-size="20px" dominant-baseline="middle" text-anchor="middle" font-family="Arial" font-weight="normal" fill="#ffffff" >
H
 </text>

<circle cx="2912.8" cy="170.0" r="4" fill="#16acff" />
<line x1="2912.8" x2="2912.8" y1="170.0" y2="230.0" stroke="#16acff" stroke-width="3" />
<rect x="2892.8" y="210.0" width="40" height="40" rx="4" ry="4" stroke="#ffffff" stroke-width="0" fill="#16acff" fill-opacity="1" />
<line x1="2898.8" x2="2926.8" y1="230.0" y2="230.0" stroke="#ffffff" stroke-width="4" />
<line x1="2912.8" x2="2912.8" y1="216.0" y2="244.0" stroke="#ffffff" stroke-width="4" />

<rect x="2952.8" y="210.0" width="80.0" height="40" rx="4" ry="4" stroke="#ffffff" stroke-width="0" fill="#fac209" fill-opacity="1" />
<text x="2992.8" y="226.0" font-size="20px" dominant-baseline="middle" text-anchor="middle" font-family="Arial" font-weight="normal" fill="#ffffff" >
RZ
 </text>
<text x="2992.8" y="242.0" font-size="14.0px" dominant-baseline="middle" text-anchor="middle" font-family="Arial" font-weight="normal" fill="#ffffff" >
beta_1
 </text>


<rect x="2952.8" y="150.0" width="40.0" height="40" rx="4" ry="4" stroke="#ffffff" stroke-width="0" fill="#5e7ce0" fill-opacity="1" />
<text x="2972.8" y="170.0" font-size="20px" dominant-baseline="middle" text-anchor="middle" font-family="Arial" font-weight="normal" fill="#ffffff" >
H
 </text>


<rect x="3052.8" y="210.0" width="40.0" height="40" rx="4" ry="4" stroke="#ffffff" stroke-width="0" fill="#5e7ce0" fill-opacity="1" />
<text x="3072.8" y="230.0" font-size="20px" dominant-baseline="middle" text-anchor="middle" font-family="Arial" font-weight="normal" fill="#ffffff" >
H
 </text>

<circle cx="3132.8" cy="170.0" r="4" fill="#16acff" />
<line x1="3132.8" x2="3132.8" y1="170.0" y2="230.0" stroke="#16acff" stroke-width="3" />
<rect x="3112.8" y="210.0" width="40" height="40" rx="4" ry="4" stroke="#ffffff" stroke-width="0" fill="#16acff" fill-opacity="1" />
<line x1="3118.8" x2="3146.8" y1="230.0" y2="230.0" stroke="#ffffff" stroke-width="4" />
<line x1="3132.8" x2="3132.8" y1="216.0" y2="244.0" stroke="#ffffff" stroke-width="4" />

<rect x="2492.8" y="270.0" width="40.0" height="40" rx="4" ry="4" stroke="#ffffff" stroke-width="0" fill="#5e7ce0" fill-opacity="1" />
<text x="2512.8" y="290.0" font-size="20px" dominant-baseline="middle" text-anchor="middle" font-family="Arial" font-weight="normal" fill="#ffffff" >
H
 </text>


<rect x="3172.8" y="210.0" width="40.0" height="40" rx="4" ry="4" stroke="#ffffff" stroke-width="0" fill="#5e7ce0" fill-opacity="1" />
<text x="3192.8" y="230.0" font-size="20px" dominant-baseline="middle" text-anchor="middle" font-family="Arial" font-weight="normal" fill="#ffffff" >
H
 </text>

<circle cx="3252.8" cy="290.0" r="4" fill="#16acff" />
<line x1="3252.8" x2="3252.8" y1="230.0" y2="290.0" stroke="#16acff" stroke-width="3" />
<rect x="3232.8" y="210.0" width="40" height="40" rx="4" ry="4" stroke="#ffffff" stroke-width="0" fill="#16acff" fill-opacity="1" />
<line x1="3238.8" x2="3266.8" y1="230.0" y2="230.0" stroke="#ffffff" stroke-width="4" />
<line x1="3252.8" x2="3252.8" y1="216.0" y2="244.0" stroke="#ffffff" stroke-width="4" />

<rect x="3292.8" y="210.0" width="80.0" height="40" rx="4" ry="4" stroke="#ffffff" stroke-width="0" fill="#fac209" fill-opacity="1" />
<text x="3332.8" y="226.0" font-size="20px" dominant-baseline="middle" text-anchor="middle" font-family="Arial" font-weight="normal" fill="#ffffff" >
RZ
 </text>
<text x="3332.8" y="242.0" font-size="14.0px" dominant-baseline="middle" text-anchor="middle" font-family="Arial" font-weight="normal" fill="#ffffff" >
beta_1
 </text>


<rect x="3292.8" y="270.0" width="40.0" height="40" rx="4" ry="4" stroke="#ffffff" stroke-width="0" fill="#5e7ce0" fill-opacity="1" />
<text x="3312.8" y="290.0" font-size="20px" dominant-baseline="middle" text-anchor="middle" font-family="Arial" font-weight="normal" fill="#ffffff" >
H
 </text>


<rect x="3392.8" y="210.0" width="40.0" height="40" rx="4" ry="4" stroke="#ffffff" stroke-width="0" fill="#5e7ce0" fill-opacity="1" />
<text x="3412.8" y="230.0" font-size="20px" dominant-baseline="middle" text-anchor="middle" font-family="Arial" font-weight="normal" fill="#ffffff" >
H
 </text>

<circle cx="3472.8" cy="290.0" r="4" fill="#16acff" />
<line x1="3472.8" x2="3472.8" y1="230.0" y2="290.0" stroke="#16acff" stroke-width="3" />
<rect x="3452.8" y="210.0" width="40" height="40" rx="4" ry="4" stroke="#ffffff" stroke-width="0" fill="#16acff" fill-opacity="1" />
<line x1="3458.8" x2="3486.8" y1="230.0" y2="230.0" stroke="#ffffff" stroke-width="4" />
<line x1="3472.8" x2="3472.8" y1="216.0" y2="244.0" stroke="#ffffff" stroke-width="4" />

<rect x="3512.8" y="270.0" width="80.0" height="40" rx="4" ry="4" stroke="#ffffff" stroke-width="0" fill="#fac209" fill-opacity="1" />
<text x="3552.8" y="286.0" font-size="20px" dominant-baseline="middle" text-anchor="middle" font-family="Arial" font-weight="normal" fill="#ffffff" >
RY
 </text>
<text x="3552.8" y="302.0" font-size="14.0px" dominant-baseline="middle" text-anchor="middle" font-family="Arial" font-weight="normal" fill="#ffffff" >
alpha_1
 </text>


<rect x="3512.8" y="210.0" width="80.0" height="40" rx="4" ry="4" stroke="#ffffff" stroke-width="0" fill="#fac209" fill-opacity="1" />
<text x="3552.8" y="226.0" font-size="20px" dominant-baseline="middle" text-anchor="middle" font-family="Arial" font-weight="normal" fill="#ffffff" >
RY
 </text>
<text x="3552.8" y="242.0" font-size="14.0px" dominant-baseline="middle" text-anchor="middle" font-family="Arial" font-weight="normal" fill="#ffffff" >
alpha_1
 </text>

<circle cx="3292.8" cy="110.0" r="4" fill="#16acff" />
<line x1="3292.8" x2="3292.8" y1="50.0" y2="110.0" stroke="#16acff" stroke-width="3" />
<rect x="3272.8" y="30.0" width="40" height="40" rx="4" ry="4" stroke="#ffffff" stroke-width="0" fill="#16acff" fill-opacity="1" />
<line x1="3278.8" x2="3306.8" y1="50.0" y2="50.0" stroke="#ffffff" stroke-width="4" />
<line x1="3292.8" x2="3292.8" y1="36.0" y2="64.0" stroke="#ffffff" stroke-width="4" />
<circle cx="3352.8" cy="50.0" r="4" fill="#16acff" />
<line x1="3352.8" x2="3352.8" y1="50.0" y2="110.0" stroke="#16acff" stroke-width="3" />
<rect x="3332.8" y="90.0" width="40" height="40" rx="4" ry="4" stroke="#ffffff" stroke-width="0" fill="#16acff" fill-opacity="1" />
<line x1="3338.8" x2="3366.8" y1="110.0" y2="110.0" stroke="#ffffff" stroke-width="4" />
<line x1="3352.8" x2="3352.8" y1="96.0" y2="124.0" stroke="#ffffff" stroke-width="4" />
<circle cx="3412.8" cy="110.0" r="4" fill="#16acff" />
<line x1="3412.8" x2="3412.8" y1="50.0" y2="110.0" stroke="#16acff" stroke-width="3" />
<rect x="3392.8" y="30.0" width="40" height="40" rx="4" ry="4" stroke="#ffffff" stroke-width="0" fill="#16acff" fill-opacity="1" />
<line x1="3398.8" x2="3426.8" y1="50.0" y2="50.0" stroke="#ffffff" stroke-width="4" />
<line x1="3412.8" x2="3412.8" y1="36.0" y2="64.0" stroke="#ffffff" stroke-width="4" />

<rect x="3172.8" y="150.0" width="40.0" height="40" rx="4" ry="4" stroke="#ffffff" stroke-width="0" fill="#5e7ce0" fill-opacity="1" />
<text x="3192.8" y="170.0" font-size="20px" dominant-baseline="middle" text-anchor="middle" font-family="Arial" font-weight="normal" fill="#ffffff" >
H
 </text>


<rect x="3452.8" y="90.0" width="40.0" height="40" rx="4" ry="4" stroke="#ffffff" stroke-width="0" fill="#5e7ce0" fill-opacity="1" />
<text x="3472.8" y="110.0" font-size="20px" dominant-baseline="middle" text-anchor="middle" font-family="Arial" font-weight="normal" fill="#ffffff" >
H
 </text>

<circle cx="3532.8" cy="170.0" r="4" fill="#16acff" />
<line x1="3532.8" x2="3532.8" y1="110.0" y2="170.0" stroke="#16acff" stroke-width="3" />
<rect x="3512.8" y="90.0" width="40" height="40" rx="4" ry="4" stroke="#ffffff" stroke-width="0" fill="#16acff" fill-opacity="1" />
<line x1="3518.8" x2="3546.8" y1="110.0" y2="110.0" stroke="#ffffff" stroke-width="4" />
<line x1="3532.8" x2="3532.8" y1="96.0" y2="124.0" stroke="#ffffff" stroke-width="4" />

<rect x="3572.8" y="90.0" width="80.0" height="40" rx="4" ry="4" stroke="#ffffff" stroke-width="0" fill="#fac209" fill-opacity="1" />
<text x="3612.8" y="106.0" font-size="20px" dominant-baseline="middle" text-anchor="middle" font-family="Arial" font-weight="normal" fill="#ffffff" >
RZ
 </text>
<text x="3612.8" y="122.0" font-size="14.0px" dominant-baseline="middle" text-anchor="middle" font-family="Arial" font-weight="normal" fill="#ffffff" >
beta_1
 </text>


<rect x="3572.8" y="150.0" width="40.0" height="40" rx="4" ry="4" stroke="#ffffff" stroke-width="0" fill="#5e7ce0" fill-opacity="1" />
<text x="3592.8" y="170.0" font-size="20px" dominant-baseline="middle" text-anchor="middle" font-family="Arial" font-weight="normal" fill="#ffffff" >
H
 </text>


<rect x="3672.8" y="90.0" width="40.0" height="40" rx="4" ry="4" stroke="#ffffff" stroke-width="0" fill="#5e7ce0" fill-opacity="1" />
<text x="3692.8" y="110.0" font-size="20px" dominant-baseline="middle" text-anchor="middle" font-family="Arial" font-weight="normal" fill="#ffffff" >
H
 </text>

<circle cx="3752.8" cy="170.0" r="4" fill="#16acff" />
<line x1="3752.8" x2="3752.8" y1="110.0" y2="170.0" stroke="#16acff" stroke-width="3" />
<rect x="3732.8" y="90.0" width="40" height="40" rx="4" ry="4" stroke="#ffffff" stroke-width="0" fill="#16acff" fill-opacity="1" />
<line x1="3738.8" x2="3766.8" y1="110.0" y2="110.0" stroke="#ffffff" stroke-width="4" />
<line x1="3752.8" x2="3752.8" y1="96.0" y2="124.0" stroke="#ffffff" stroke-width="4" />

<rect x="3792.8" y="150.0" width="80.0" height="40" rx="4" ry="4" stroke="#ffffff" stroke-width="0" fill="#fac209" fill-opacity="1" />
<text x="3832.8" y="166.0" font-size="20px" dominant-baseline="middle" text-anchor="middle" font-family="Arial" font-weight="normal" fill="#ffffff" >
RY
 </text>
<text x="3832.8" y="182.0" font-size="14.0px" dominant-baseline="middle" text-anchor="middle" font-family="Arial" font-weight="normal" fill="#ffffff" >
alpha_1
 </text>


<rect x="3792.8" y="90.0" width="80.0" height="40" rx="4" ry="4" stroke="#ffffff" stroke-width="0" fill="#fac209" fill-opacity="1" />
<text x="3832.8" y="106.0" font-size="20px" dominant-baseline="middle" text-anchor="middle" font-family="Arial" font-weight="normal" fill="#ffffff" >
RY
 </text>
<text x="3832.8" y="122.0" font-size="14.0px" dominant-baseline="middle" text-anchor="middle" font-family="Arial" font-weight="normal" fill="#ffffff" >
alpha_1
 </text>

</svg>